MulatAwash-Italic.ufo
<glyph name="zero" format="2">
  <advance width="502"/>
  <unicode hex="0030"/>
  <note>
zero
</note>
  <outline>
    <contour>
      <point x="145" y="-3" type="curve" smooth="yes"/>
      <point x="306" y="-3"/>
      <point x="451" y="226"/>
      <point x="506" y="382" type="curve" smooth="yes"/>
      <point x="529" y="447"/>
      <point x="550" y="524"/>
      <point x="550" y="572" type="curve" smooth="yes"/>
      <point x="550" y="661"/>
      <point x="513" y="705"/>
      <point x="439" y="705" type="curve" smooth="yes"/>
      <point x="313" y="705"/>
      <point x="158" y="548"/>
      <point x="72" y="375" type="curve" smooth="yes"/>
      <point x="28" y="289"/>
      <point x="7" y="214"/>
      <point x="7" y="153" type="curve" smooth="yes"/>
      <point x="7" y="65"/>
      <point x="50" y="-3"/>
    </contour>
    <contour>
      <point x="152" y="21" type="curve" smooth="yes"/>
      <point x="103" y="21"/>
      <point x="67" y="85"/>
      <point x="67" y="145" type="curve" smooth="yes"/>
      <point x="67" y="195"/>
      <point x="89" y="274"/>
      <point x="132" y="355" type="curve" smooth="yes"/>
      <point x="214" y="513"/>
      <point x="356" y="682"/>
      <point x="440" y="682" type="curve" smooth="yes"/>
      <point x="523" y="682"/>
      <point x="536" y="585"/>
      <point x="462" y="384" type="curve" smooth="yes"/>
      <point x="391" y="204"/>
      <point x="252" y="21"/>
    </contour>
  </outline>
</glyph>
<glyph name="less" format="2">
  <advance width="329"/>
  <unicode hex="003C"/>
  <note>
less
</note>
  <outline>
    <contour>
      <point x="225" y="19" type="curve" smooth="yes"/>
      <point x="231" y="23"/>
      <point x="224" y="40"/>
      <point x="217" y="56" type="curve" smooth="yes"/>
      <point x="131" y="254" type="line"/>
      <point x="340" y="359" type="line" smooth="yes"/>
      <point x="358" y="369"/>
      <point x="372" y="408"/>
      <point x="357" y="403" type="curve" smooth="yes"/>
      <point x="173" y="332" type="line" smooth="yes"/>
      <point x="127" y="314"/>
      <point x="63" y="285"/>
      <point x="55" y="265" type="curve" smooth="yes"/>
      <point x="48" y="248"/>
      <point x="86" y="176"/>
      <point x="132" y="113" type="curve" smooth="yes"/>
      <point x="191" y="32"/>
      <point x="212" y="11"/>
    </contour>
  </outline>
</glyph>
<glyph name="D" format="2">
  <advance width="1033"/>
  <unicode hex="0044"/>
  <note>
D
</note>
  <outline>
    <contour>
      <point x="186" y="-39" type="curve" smooth="yes"/>
      <point x="261" y="-39"/>
      <point x="330" y="-14"/>
      <point x="392" y="36" type="curve"/>
      <point x="473" y="-11"/>
      <point x="570" y="-34"/>
      <point x="685" y="-34" type="curve" smooth="yes"/>
      <point x="742" y="-34"/>
      <point x="799" y="-24"/>
      <point x="857" y="-3" type="curve" smooth="yes"/>
      <point x="984" y="42"/>
      <point x="1043" y="154"/>
      <point x="1043" y="293" type="curve" smooth="yes"/>
      <point x="1043" y="363"/>
      <point x="1028" y="428"/>
      <point x="998" y="487" type="curve" smooth="yes"/>
      <point x="961" y="561"/>
      <point x="906" y="622"/>
      <point x="835" y="669" type="curve"/>
      <point x="858" y="710"/>
      <point x="900" y="772"/>
      <point x="923" y="772" type="curve" smooth="yes"/>
      <point x="936" y="772"/>
      <point x="932" y="786"/>
      <point x="917" y="786" type="curve" smooth="yes"/>
      <point x="890" y="786"/>
      <point x="844" y="754"/>
      <point x="792" y="694" type="curve"/>
      <point x="708" y="738"/>
      <point x="620" y="760"/>
      <point x="527" y="760" type="curve" smooth="yes"/>
      <point x="417" y="760"/>
      <point x="220" y="726"/>
      <point x="128" y="603" type="curve" smooth="yes"/>
      <point x="47" y="496"/>
      <point x="99" y="367"/>
      <point x="197" y="343" type="curve" smooth="yes"/>
      <point x="274" y="324"/>
      <point x="326" y="344"/>
      <point x="360" y="375" type="curve" smooth="yes"/>
      <point x="389" y="403"/>
      <point x="404" y="439"/>
      <point x="408" y="467" type="curve" smooth="yes"/>
      <point x="410" y="477"/>
      <point x="407" y="483"/>
      <point x="402" y="485" type="curve" smooth="yes"/>
      <point x="398" y="486"/>
      <point x="392" y="484"/>
      <point x="388" y="476" type="curve" smooth="yes"/>
      <point x="378" y="458"/>
      <point x="370" y="423"/>
      <point x="341" y="394" type="curve" smooth="yes"/>
      <point x="301" y="356"/>
      <point x="253" y="355"/>
      <point x="207" y="367" type="curve" smooth="yes"/>
      <point x="113" y="397"/>
      <point x="115" y="498"/>
      <point x="184" y="584" type="curve" smooth="yes"/>
      <point x="271" y="693"/>
      <point x="415" y="730"/>
      <point x="526" y="730" type="curve" smooth="yes"/>
      <point x="610" y="730"/>
      <point x="689" y="708"/>
      <point x="764" y="663" type="curve"/>
      <point x="695" y="586"/>
      <point x="628" y="453"/>
      <point x="573" y="355" type="curve" smooth="yes"/>
      <point x="517" y="255"/>
      <point x="451" y="136"/>
      <point x="384" y="72" type="curve"/>
      <point x="213" y="183"/>
      <point x="22" y="199"/>
      <point x="20" y="73" type="curve" smooth="yes"/>
      <point x="19" y="-2"/>
      <point x="84" y="-39"/>
    </contour>
    <contour>
      <point x="179" y="-8" type="curve" smooth="yes"/>
      <point x="136" y="-8"/>
      <point x="80" y="11"/>
      <point x="80" y="66" type="curve" smooth="yes"/>
      <point x="80" y="145"/>
      <point x="189" y="141"/>
      <point x="358" y="52" type="curve"/>
      <point x="303" y="12"/>
      <point x="243" y="-8"/>
    </contour>
    <contour>
      <point x="653" y="-6" type="curve" smooth="yes"/>
      <point x="562" y="-6"/>
      <point x="483" y="14"/>
      <point x="416" y="54" type="curve"/>
      <point x="470" y="100"/>
      <point x="516" y="162"/>
      <point x="560" y="228" type="curve" smooth="yes"/>
      <point x="654" y="368"/>
      <point x="747" y="531"/>
      <point x="811" y="631" type="curve"/>
      <point x="870" y="585"/>
      <point x="914" y="528"/>
      <point x="944" y="459" type="curve" smooth="yes"/>
      <point x="968" y="405"/>
      <point x="980" y="347"/>
      <point x="980" y="286" type="curve" smooth="yes"/>
      <point x="980" y="163"/>
      <point x="924" y="79"/>
      <point x="836" y="34" type="curve" smooth="yes"/>
      <point x="784" y="7"/>
      <point x="722" y="-6"/>
    </contour>
  </outline>
</glyph>
<glyph name="E" format="2">
  <advance width="729"/>
  <unicode hex="0045"/>
  <note>
E
</note>
  <anchor x="634" y="744" name="top"/>
  <outline>
    <contour>
      <point x="176" y="-35" type="curve" smooth="yes"/>
      <point x="268" y="-64"/>
      <point x="413" y="-65"/>
      <point x="564" y="-19" type="curve" smooth="yes"/>
      <point x="721" y="29"/>
      <point x="837" y="120"/>
      <point x="837" y="195" type="curve" smooth="yes"/>
      <point x="837" y="220"/>
      <point x="822" y="241"/>
      <point x="792" y="257" type="curve" smooth="yes"/>
      <point x="777" y="265"/>
      <point x="746" y="268"/>
      <point x="749" y="256" type="curve" smooth="yes"/>
      <point x="752" y="236"/>
      <point x="800" y="243"/>
      <point x="798" y="215" type="curve" smooth="yes"/>
      <point x="796" y="183"/>
      <point x="771" y="146"/>
      <point x="716" y="103" type="curve" smooth="yes"/>
      <point x="620" y="28"/>
      <point x="451" y="-33"/>
      <point x="340" y="-33" type="curve" smooth="yes"/>
      <point x="195" y="-33"/>
      <point x="91" y="12"/>
      <point x="91" y="140" type="curve" smooth="yes"/>
      <point x="91" y="205"/>
      <point x="120" y="263"/>
      <point x="178" y="312" type="curve" smooth="yes"/>
      <point x="227" y="355"/>
      <point x="296" y="377"/>
      <point x="384" y="376" type="curve" smooth="yes"/>
      <point x="491" y="375" type="line" smooth="yes"/>
      <point x="520" y="375"/>
      <point x="534" y="383"/>
      <point x="534" y="398" type="curve" smooth="yes"/>
      <point x="534" y="415"/>
      <point x="508" y="429"/>
      <point x="457" y="440" type="curve" smooth="yes"/>
      <point x="393" y="455"/>
      <point x="321" y="478"/>
      <point x="321" y="548" type="curve" smooth="yes"/>
      <point x="321" y="597"/>
      <point x="346" y="642"/>
      <point x="397" y="683" type="curve" smooth="yes"/>
      <point x="462" y="736"/>
      <point x="607" y="785"/>
      <point x="681" y="783" type="curve" smooth="yes"/>
      <point x="754" y="781"/>
      <point x="809" y="739"/>
      <point x="809" y="700" type="curve" smooth="yes"/>
      <point x="809" y="636"/>
      <point x="739" y="586"/>
      <point x="687" y="571" type="curve" smooth="yes"/>
      <point x="667" y="565"/>
      <point x="656" y="570"/>
      <point x="653" y="555" type="curve" smooth="yes"/>
      <point x="652" y="551"/>
      <point x="656" y="549"/>
      <point x="664" y="549" type="curve" smooth="yes"/>
      <point x="671" y="549"/>
      <point x="681" y="550"/>
      <point x="693" y="553" type="curve" smooth="yes"/>
      <point x="790" y="574"/>
      <point x="869" y="637"/>
      <point x="869" y="697" type="curve" smooth="yes"/>
      <point x="869" y="783"/>
      <point x="762" y="804"/>
      <point x="673" y="804" type="curve" smooth="yes"/>
      <point x="584" y="804"/>
      <point x="450" y="777"/>
      <point x="338" y="691" type="curve" smooth="yes"/>
      <point x="282" y="648"/>
      <point x="247" y="599"/>
      <point x="247" y="539" type="curve" smooth="yes"/>
      <point x="247" y="490"/>
      <point x="300" y="444"/>
      <point x="367" y="420" type="curve"/>
      <point x="303" y="417"/>
      <point x="216" y="395"/>
      <point x="145" y="347" type="curve" smooth="yes"/>
      <point x="77" y="301"/>
      <point x="18" y="220"/>
      <point x="20" y="142" type="curve" smooth="yes"/>
      <point x="22" y="70"/>
      <point x="76" y="-4"/>
    </contour>
  </outline>
</glyph>
<glyph name="G" format="2">
  <advance width="723"/>
  <unicode hex="0047"/>
  <note>
G
</note>
  <outline>
    <contour>
      <point x="155" y="-374" type="curve" smooth="yes"/>
      <point x="208" y="-374"/>
      <point x="278" y="-355"/>
      <point x="348" y="-321" type="curve" smooth="yes"/>
      <point x="445" y="-275"/>
      <point x="544" y="-201"/>
      <point x="605" y="-112" type="curve"/>
      <point x="718" y="-112"/>
      <point x="784" y="-118"/>
      <point x="830" y="-130" type="curve" smooth="yes"/>
      <point x="849" y="-135"/>
      <point x="859" y="-133"/>
      <point x="859" y="-126" type="curve" smooth="yes"/>
      <point x="859" y="-120"/>
      <point x="852" y="-115"/>
      <point x="838" y="-112" type="curve" smooth="yes"/>
      <point x="772" y="-95"/>
      <point x="699" y="-87"/>
      <point x="619" y="-86" type="curve"/>
      <point x="699" y="46"/>
      <point x="742" y="140"/>
      <point x="755" y="244" type="curve" smooth="yes"/>
      <point x="759" y="266"/>
      <point x="746" y="292"/>
      <point x="722" y="292" type="curve" smooth="yes"/>
      <point x="691" y="292"/>
      <point x="677" y="252"/>
      <point x="636" y="199" type="curve" smooth="yes"/>
      <point x="583" y="130"/>
      <point x="446" y="60"/>
      <point x="364" y="60" type="curve" smooth="yes"/>
      <point x="241" y="60"/>
      <point x="178" y="130"/>
      <point x="178" y="276" type="curve" smooth="yes"/>
      <point x="178" y="331"/>
      <point x="194" y="393"/>
      <point x="226" y="462" type="curve"/>
      <point x="295" y="416"/>
      <point x="383" y="393"/>
      <point x="491" y="393" type="curve" smooth="yes"/>
      <point x="644" y="393"/>
      <point x="863" y="473"/>
      <point x="863" y="635" type="curve" smooth="yes"/>
      <point x="863" y="733"/>
      <point x="784" y="797"/>
      <point x="671" y="814" type="curve" smooth="yes"/>
      <point x="474" y="843"/>
      <point x="292" y="717"/>
      <point x="180" y="529" type="curve"/>
      <point x="122" y="597"/>
      <point x="103" y="687"/>
      <point x="173" y="781" type="curve" smooth="yes"/>
      <point x="186" y="800"/>
      <point x="176" y="806"/>
      <point x="160" y="789" type="curve" smooth="yes"/>
      <point x="80" y="700"/>
      <point x="72" y="593"/>
      <point x="164" y="499" type="curve"/>
      <point x="130" y="425"/>
      <point x="113" y="356"/>
      <point x="113" y="291" type="curve" smooth="yes"/>
      <point x="113" y="149"/>
      <point x="186" y="23"/>
      <point x="342" y="23" type="curve" smooth="yes"/>
      <point x="443" y="23"/>
      <point x="585" y="91"/>
      <point x="674" y="177" type="curve"/>
      <point x="651" y="80"/>
      <point x="618" y="-3"/>
      <point x="569" y="-86" type="curve"/>
      <point x="409" y="-89"/>
      <point x="285" y="-103"/>
      <point x="169" y="-155" type="curve" smooth="yes"/>
      <point x="111" y="-181"/>
      <point x="20" y="-234"/>
      <point x="20" y="-294" type="curve" smooth="yes"/>
      <point x="20" y="-348"/>
      <point x="101" y="-374"/>
    </contour>
    <contour>
      <point x="154" y="-343" type="curve" smooth="yes"/>
      <point x="125" y="-343"/>
      <point x="71" y="-334"/>
      <point x="71" y="-301" type="curve" smooth="yes"/>
      <point x="71" y="-276"/>
      <point x="98" y="-247"/>
      <point x="152" y="-212" type="curve" smooth="yes"/>
      <point x="221" y="-168"/>
      <point x="293" y="-140"/>
      <point x="369" y="-129" type="curve" smooth="yes"/>
      <point x="422" y="-120"/>
      <point x="483" y="-115"/>
      <point x="553" y="-113" type="curve"/>
      <point x="499" y="-190"/>
      <point x="426" y="-250"/>
      <point x="334" y="-292" type="curve" smooth="yes"/>
      <point x="261" y="-326"/>
      <point x="201" y="-343"/>
    </contour>
    <contour>
      <point x="491" y="422" type="curve" smooth="yes"/>
      <point x="426" y="419"/>
      <point x="302" y="440"/>
      <point x="239" y="488" type="curve"/>
      <point x="313" y="636"/>
      <point x="480" y="803"/>
      <point x="667" y="783" type="curve" smooth="yes"/>
      <point x="741" y="775"/>
      <point x="819" y="712"/>
      <point x="819" y="651" type="curve" smooth="yes"/>
      <point x="819" y="503"/>
      <point x="638" y="429"/>
    </contour>
  </outline>
</glyph>
<glyph name="X" format="2">
  <advance width="1106"/>
  <unicode hex="0058"/>
  <note>
X
</note>
  <outline>
    <contour>
      <point x="34" y="-220" type="curve" smooth="yes"/>
      <point x="54" y="-220"/>
      <point x="74" y="-203"/>
      <point x="95" y="-169" type="curve" smooth="yes"/>
      <point x="199" y="-6"/>
      <point x="381" y="170"/>
      <point x="640" y="357" type="curve"/>
      <point x="639" y="283"/>
      <point x="638" y="212"/>
      <point x="638" y="145" type="curve" smooth="yes"/>
      <point x="638" y="78"/>
      <point x="640" y="35"/>
      <point x="644" y="17" type="curve" smooth="yes"/>
      <point x="661" y="-65"/>
      <point x="720" y="-123"/>
      <point x="821" y="-66" type="curve" smooth="yes"/>
      <point x="893" y="-25"/>
      <point x="959" y="58"/>
      <point x="1019" y="184" type="curve" smooth="yes"/>
      <point x="1030" y="207"/>
      <point x="1011" y="209"/>
      <point x="1002" y="189" type="curve" smooth="yes"/>
      <point x="987" y="154"/>
      <point x="969" y="121"/>
      <point x="950" y="92" type="curve" smooth="yes"/>
      <point x="896" y="10"/>
      <point x="844" y="-31"/>
      <point x="794" y="-31" type="curve" smooth="yes"/>
      <point x="758" y="-31"/>
      <point x="732" y="-3"/>
      <point x="717" y="53" type="curve" smooth="yes"/>
      <point x="706" y="94"/>
      <point x="701" y="172"/>
      <point x="701" y="287" type="curve" smooth="yes"/>
      <point x="701" y="320"/>
      <point x="701" y="356"/>
      <point x="702" y="395" type="curve"/>
      <point x="835" y="490"/>
      <point x="995" y="597"/>
      <point x="1116" y="684" type="curve" smooth="yes"/>
      <point x="1192" y="738"/>
      <point x="1246" y="785"/>
      <point x="1246" y="804" type="curve" smooth="yes"/>
      <point x="1246" y="813"/>
      <point x="1238" y="817"/>
      <point x="1223" y="817" type="curve" smooth="yes"/>
      <point x="1221" y="817"/>
      <point x="1217" y="816"/>
      <point x="1212" y="814" type="curve" smooth="yes"/>
      <point x="1202" y="809"/>
      <point x="1202" y="807"/>
      <point x="1181" y="789" type="curve" smooth="yes"/>
      <point x="1150" y="759" type="line" smooth="yes"/>
      <point x="1062" y="671"/>
      <point x="924" y="588"/>
      <point x="701" y="433" type="curve"/>
      <point x="701" y="464"/>
      <point x="703" y="529"/>
      <point x="694" y="630" type="curve" smooth="yes"/>
      <point x="691" y="668"/>
      <point x="681" y="704"/>
      <point x="662" y="738" type="curve" smooth="yes"/>
      <point x="645" y="771"/>
      <point x="615" y="788"/>
      <point x="574" y="788" type="curve" smooth="yes"/>
      <point x="495" y="788"/>
      <point x="373" y="715"/>
      <point x="308" y="661" type="curve" smooth="yes"/>
      <point x="275" y="634"/>
      <point x="256" y="615"/>
      <point x="250" y="606" type="curve" smooth="yes"/>
      <point x="239" y="589"/>
      <point x="240" y="578"/>
      <point x="255" y="574" type="curve" smooth="yes"/>
      <point x="260" y="572"/>
      <point x="264" y="572"/>
      <point x="266" y="574" type="curve"/>
      <point x="277" y="599"/>
      <point x="301" y="625"/>
      <point x="338" y="653" type="curve" smooth="yes"/>
      <point x="410" y="709"/>
      <point x="477" y="737"/>
      <point x="540" y="737" type="curve" smooth="yes"/>
      <point x="591" y="737"/>
      <point x="621" y="711"/>
      <point x="629" y="658" type="curve" smooth="yes"/>
      <point x="636" y="612"/>
      <point x="639" y="561"/>
      <point x="639" y="505" type="curve" smooth="yes"/>
      <point x="639" y="395" type="line"/>
      <point x="374" y="206"/>
      <point x="174" y="18"/>
      <point x="39" y="-169" type="curve"/>
      <point x="27" y="-189" type="line" smooth="yes"/>
      <point x="22" y="-197"/>
      <point x="20" y="-204"/>
      <point x="20" y="-209" type="curve" smooth="yes"/>
      <point x="20" y="-216"/>
      <point x="25" y="-220"/>
    </contour>
  </outline>
</glyph>
<glyph name="grave" format="2">
  <advance width="211"/>
  <unicode hex="0060"/>
  <note>
grave
</note>
  <anchor x="101" y="512" name="_top"/>
  <outline>
    <contour>
      <point x="229" y="593" type="curve" smooth="yes"/>
      <point x="234" y="592"/>
      <point x="252" y="593"/>
      <point x="220" y="615" type="curve" smooth="yes"/>
      <point x="53" y="728"/>
      <point x="26" y="753"/>
      <point x="-3" y="753" type="curve" smooth="yes"/>
      <point x="-46" y="751"/>
      <point x="-64" y="754"/>
      <point x="-50" y="727" type="curve" smooth="yes"/>
      <point x="-40" y="703"/>
      <point x="207" y="593"/>
    </contour>
  </outline>
</glyph>
<glyph name="j" format="2">
  <advance width="156"/>
  <unicode hex="006A"/>
  <note>
j
</note>
  <outline>
    <contour>
      <point x="-218" y="-405"/>
      <point x="-126" y="-395"/>
      <point x="-44" y="-333" type="curve" smooth="yes"/>
      <point x="-1" y="-299"/>
      <point x="38" y="-251"/>
      <point x="61" y="-198" type="curve" smooth="yes"/>
      <point x="86" y="-140"/>
      <point x="101" y="-96"/>
      <point x="116" y="-36" type="curve" smooth="yes"/>
      <point x="124" y="-3" type="line"/>
      <point x="181" y="17"/>
      <point x="249" y="110"/>
      <point x="327" y="267" type="curve"/>
      <point x="341" y="300"/>
      <point x="317" y="305"/>
      <point x="306" y="279" type="curve" smooth="yes"/>
      <point x="266" y="197"/>
      <point x="225" y="131"/>
      <point x="184" y="80" type="curve" smooth="yes"/>
      <point x="165" y="56"/>
      <point x="148" y="40"/>
      <point x="133" y="32" type="curve"/>
      <point x="141" y="76"/>
      <point x="184" y="196"/>
      <point x="265" y="425" type="curve" smooth="yes"/>
      <point x="280" y="462"/>
      <point x="285" y="496"/>
      <point x="239" y="494" type="curve" smooth="yes"/>
      <point x="197" y="492" type="line"/>
      <point x="213" y="470"/>
      <point x="221" y="450"/>
      <point x="212" y="429" type="curve"/>
      <point x="178" y="323" type="line"/>
      <point x="148" y="215" type="line"/>
      <point x="90" y="24" type="line"/>
      <point x="1" y="-7" type="line" smooth="yes"/>
      <point x="-45" y="-23"/>
      <point x="-87" y="-55"/>
      <point x="-120" y="-95" type="curve" smooth="yes"/>
      <point x="-167" y="-152"/>
      <point x="-198" y="-226"/>
      <point x="-206" y="-294" type="curve" smooth="yes"/>
    </contour>
    <contour>
      <point x="-7" y="-232"/>
      <point x="-32" y="-273"/>
      <point x="-62" y="-303" type="curve" smooth="yes"/>
      <point x="-120" y="-359"/>
      <point x="-174" y="-371"/>
      <point x="-162" y="-295" type="curve" smooth="yes"/>
      <point x="-147" y="-200"/>
      <point x="-126" y="-159"/>
      <point x="-86" y="-113" type="curve" smooth="yes"/>
      <point x="-38" y="-58"/>
      <point x="40" y="-32"/>
      <point x="79" y="-17" type="curve"/>
      <point x="64" y="-90"/>
      <point x="44" y="-145"/>
      <point x="17" y="-191" type="curve" smooth="yes"/>
    </contour>
    <contour>
      <point x="273" y="564" type="curve" smooth="yes"/>
      <point x="349" y="564"/>
      <point x="359" y="669"/>
      <point x="291" y="669" type="curve" smooth="yes"/>
      <point x="261" y="669"/>
      <point x="234" y="646"/>
      <point x="229" y="617" type="curve" smooth="yes"/>
      <point x="225" y="588"/>
      <point x="244" y="564"/>
    </contour>
  </outline>
</glyph>
<glyph name="v" format="2">
  <advance width="383"/>
  <unicode hex="0076"/>
  <note>
v
</note>
  <outline>
    <contour>
      <point x="220" y="-14" type="curve" smooth="yes"/>
      <point x="297" y="-14"/>
      <point x="338" y="46"/>
      <point x="403" y="166" type="curve" smooth="yes"/>
      <point x="439" y="234"/>
      <point x="483" y="340"/>
      <point x="523" y="487" type="curve" smooth="yes"/>
      <point x="530" y="513" type="line"/>
      <point x="530" y="529"/>
      <point x="522" y="543"/>
      <point x="506" y="538" type="curve" smooth="yes"/>
      <point x="454" y="523"/>
      <point x="439" y="477"/>
      <point x="428" y="427" type="curve" smooth="yes"/>
      <point x="421" y="395"/>
      <point x="400" y="315"/>
      <point x="418" y="277" type="curve"/>
      <point x="348" y="103"/>
      <point x="307" y="17"/>
      <point x="235" y="16" type="curve" smooth="yes"/>
      <point x="218" y="16"/>
      <point x="185" y="52"/>
      <point x="180" y="101" type="curve" smooth="yes"/>
      <point x="174" y="152"/>
      <point x="197" y="216"/>
      <point x="214" y="268" type="curve" smooth="yes"/>
      <point x="223" y="295"/>
      <point x="231" y="332"/>
      <point x="306" y="510" type="curve"/>
      <point x="213" y="511" type="line" smooth="yes"/>
      <point x="184" y="511"/>
      <point x="232" y="495"/>
      <point x="223" y="474" type="curve"/>
      <point x="147" y="251" type="line" smooth="yes"/>
      <point x="120" y="172"/>
      <point x="120" y="-14"/>
    </contour>
  </outline>
</glyph>
<glyph name="ordfeminine" format="2">
  <advance width="304"/>
  <unicode hex="00AA"/>
  <note>
ordfeminine
</note>
  <outline>
    <contour>
      <point x="45" y="456" type="curve" smooth="yes"/>
      <point x="74" y="456"/>
      <point x="108" y="489"/>
      <point x="148" y="554" type="curve"/>
      <point x="132" y="487"/>
      <point x="153" y="447"/>
      <point x="183" y="458" type="curve"/>
      <point x="214" y="458"/>
      <point x="253" y="504"/>
      <point x="300" y="597" type="curve"/>
      <point x="307" y="609"/>
      <point x="297" y="621"/>
      <point x="289" y="603" type="curve" smooth="yes"/>
      <point x="246" y="519"/>
      <point x="214" y="477"/>
      <point x="193" y="477" type="curve" smooth="yes"/>
      <point x="192" y="477" type="line" smooth="yes"/>
      <point x="185" y="477"/>
      <point x="181" y="487"/>
      <point x="181" y="506" type="curve" smooth="yes"/>
      <point x="181" y="525"/>
      <point x="193" y="557"/>
      <point x="216" y="602" type="curve" smooth="yes"/>
      <point x="233" y="634"/>
      <point x="246" y="654"/>
      <point x="255" y="662" type="curve"/>
      <point x="203" y="649"/>
      <point x="216" y="700"/>
      <point x="172" y="617" type="curve" smooth="yes"/>
      <point x="122" y="525"/>
      <point x="83" y="479"/>
      <point x="54" y="479" type="curve" smooth="yes"/>
      <point x="41" y="479"/>
      <point x="34" y="488"/>
      <point x="34" y="508" type="curve" smooth="yes"/>
      <point x="34" y="527"/>
      <point x="45" y="556"/>
      <point x="67" y="593" type="curve" smooth="yes"/>
      <point x="115" y="670"/>
      <point x="160" y="708"/>
      <point x="202" y="708" type="curve" smooth="yes"/>
      <point x="215" y="708"/>
      <point x="225" y="699"/>
      <point x="231" y="681" type="curve"/>
      <point x="243" y="677"/>
      <point x="248" y="692"/>
      <point x="238" y="702" type="curve" smooth="yes"/>
      <point x="222" y="718"/>
      <point x="203" y="726"/>
      <point x="180" y="726" type="curve" smooth="yes"/>
      <point x="136" y="726"/>
      <point x="97" y="707"/>
      <point x="64" y="668" type="curve" smooth="yes"/>
      <point x="21" y="616"/>
      <point x="0" y="566"/>
      <point x="0" y="519" type="curve" smooth="yes"/>
      <point x="0" y="481"/>
      <point x="23" y="456"/>
    </contour>
  </outline>
</glyph>
<glyph name="acute" format="2">
  <advance width="267"/>
  <unicode hex="00B4"/>
  <note>
acute
</note>
  <anchor x="152" y="519" name="_top"/>
  <outline>
    <contour>
      <point x="-5" y="603" type="curve" smooth="yes"/>
      <point x="17" y="603"/>
      <point x="264" y="713"/>
      <point x="274" y="737" type="curve" smooth="yes"/>
      <point x="288" y="764"/>
      <point x="270" y="761"/>
      <point x="227" y="763" type="curve" smooth="yes"/>
      <point x="198" y="763"/>
      <point x="171" y="738"/>
      <point x="4" y="625" type="curve" smooth="yes"/>
      <point x="-28" y="603"/>
      <point x="-10" y="602"/>
    </contour>
  </outline>
</glyph>
<glyph name="onequarter" format="2">
  <advance width="745"/>
  <unicode hex="00BC"/>
  <note>
onequarter
</note>
  <outline>
    <contour>
      <point x="260" y="300" type="line"/>
      <point x="290" y="302"/>
      <point x="309" y="304"/>
      <point x="312" y="306" type="curve"/>
      <point x="571" y="792" type="line"/>
      <point x="604" y="855" type="line"/>
      <point x="550" y="857" type="line" smooth="yes"/>
      <point x="527" y="857"/>
      <point x="506" y="837"/>
      <point x="372" y="747" type="curve" smooth="yes"/>
      <point x="346" y="729"/>
      <point x="361" y="729"/>
      <point x="365" y="729" type="curve"/>
      <point x="376" y="729"/>
      <point x="462" y="766"/>
      <point x="524" y="797" type="curve"/>
      <point x="264" y="307" type="line"/>
    </contour>
    <contour>
      <point x="107" y="-82" type="curve" smooth="yes"/>
      <point x="137" y="-82"/>
      <point x="253" y="32"/>
      <point x="440" y="260" type="curve" smooth="yes"/>
      <point x="524" y="360"/>
      <point x="630" y="506"/>
      <point x="697" y="590" type="curve" smooth="yes"/>
      <point x="883" y="823" type="line" smooth="yes"/>
      <point x="889" y="831"/>
      <point x="892" y="836"/>
      <point x="892" y="841" type="curve" smooth="yes"/>
      <point x="892" y="850"/>
      <point x="882" y="854"/>
      <point x="873" y="854" type="curve" smooth="yes"/>
      <point x="854" y="854"/>
      <point x="840" y="848"/>
      <point x="830" y="836" type="curve" smooth="yes"/>
      <point x="800" y="796"/>
      <point x="730" y="703"/>
      <point x="641" y="591" type="curve" smooth="yes"/>
      <point x="563" y="492"/>
      <point x="471" y="378"/>
      <point x="384" y="271" type="curve" smooth="yes"/>
      <point x="273" y="134"/>
      <point x="170" y="8"/>
      <point x="109" y="-60" type="curve" smooth="yes"/>
      <point x="103" y="-67"/>
      <point x="100" y="-72"/>
      <point x="100" y="-76" type="curve" smooth="yes"/>
      <point x="100" y="-80"/>
      <point x="103" y="-82"/>
    </contour>
    <contour>
      <point x="635" y="0" type="curve"/>
      <point x="675" y="0" type="line"/>
      <point x="677" y="3"/>
      <point x="692" y="34"/>
      <point x="713" y="78" type="curve" smooth="yes"/>
      <point x="728" y="106"/>
      <point x="745" y="141"/>
      <point x="768" y="186" type="curve"/>
      <point x="795" y="186" type="line"/>
      <point x="802" y="191" type="line"/>
      <point x="807" y="202" type="line"/>
      <point x="801" y="206" type="line"/>
      <point x="778" y="206" type="line"/>
      <point x="787" y="221"/>
      <point x="844" y="330"/>
      <point x="843" y="333" type="curve" smooth="yes"/>
      <point x="841" y="339" type="line"/>
      <point x="836" y="342" type="line"/>
      <point x="825" y="340"/>
      <point x="821" y="338"/>
      <point x="811" y="336" type="curve" smooth="yes"/>
      <point x="805" y="334"/>
      <point x="801" y="330"/>
      <point x="797" y="323" type="curve" smooth="yes"/>
      <point x="734" y="202" type="line"/>
      <point x="510" y="198" type="line"/>
      <point x="517" y="205"/>
      <point x="593" y="272"/>
      <point x="736" y="403" type="curve" smooth="yes"/>
      <point x="777" y="442"/>
      <point x="809" y="473"/>
      <point x="831" y="496" type="curve" smooth="yes"/>
      <point x="854" y="520"/>
      <point x="865" y="535"/>
      <point x="864" y="542" type="curve" smooth="yes"/>
      <point x="862" y="548" type="line"/>
      <point x="856" y="551" type="line"/>
      <point x="833" y="547"/>
      <point x="821" y="554"/>
      <point x="783" y="507" type="curve" smooth="yes"/>
      <point x="725" y="429"/>
      <point x="629" y="349"/>
      <point x="545" y="266" type="curve" smooth="yes"/>
      <point x="504" y="223"/>
      <point x="479" y="196"/>
      <point x="473" y="185" type="curve"/>
      <point x="473" y="177" type="line"/>
      <point x="722" y="182" type="line"/>
      <point x="700" y="142"/>
      <point x="679" y="108"/>
      <point x="665" y="80" type="curve" smooth="yes"/>
      <point x="640" y="30"/>
      <point x="635" y="14"/>
    </contour>
  </outline>
</glyph>
<glyph name="AE" format="2">
  <advance width="1650"/>
  <unicode hex="00C6"/>
  <note>
AE
</note>
  <anchor x="1553" y="733" name="top"/>
  <outline>
    <contour>
      <point x="1047" y="332" type="line"/>
      <point x="1112" y="334" type="line" smooth="yes"/>
      <point x="1126" y="334"/>
      <point x="1188" y="352"/>
      <point x="1199" y="362" type="curve" smooth="yes"/>
      <point x="1223" y="384"/>
      <point x="1187" y="377"/>
      <point x="1109" y="366" type="curve"/>
      <point x="1000" y="370"/>
      <point x="955.911" y="372"/>
      <point x="919" y="372" type="curve"/>
      <point x="971.5" y="512.5" type="line" smooth="yes"/>
      <point x="1005" y="601"/>
      <point x="1030" y="663.333"/>
      <point x="1048" y="698" type="curve"/>
      <point x="1096" y="698"/>
      <point x="1166" y="729.5"/>
      <point x="1166" y="771.5" type="curve" smooth="yes"/>
      <point x="1166" y="792.5"/>
      <point x="1153.667" y="803"/>
      <point x="1129" y="803" type="curve" smooth="yes"/>
      <point x="1111.31" y="803"/>
      <point x="1090.925" y="797.575"/>
      <point x="1065.5" y="766.5" type="curve" smooth="yes"/>
      <point x="1050.5" y="748.167"/>
      <point x="1039.333" y="732.667"/>
      <point x="1032" y="720" type="curve"/>
      <point x="980.097" y="714.631"/>
      <point x="906.631" y="713.224"/>
      <point x="840.5" y="707" type="curve" smooth="yes"/>
      <point x="812.167" y="704.333"/>
      <point x="778.833" y="700.333"/>
      <point x="740.5" y="695" type="curve" smooth="yes"/>
      <point x="663.833" y="684.333"/>
      <point x="613" y="663.167"/>
      <point x="557" y="630.5" type="curve" smooth="yes"/>
      <point x="501" y="597.833"/>
      <point x="462.167" y="538.833"/>
      <point x="449.5" y="487.5" type="curve" smooth="yes"/>
      <point x="436.692" y="435.593"/>
      <point x="435.193" y="398.915"/>
      <point x="456" y="356" type="curve" smooth="yes"/>
      <point x="472.667" y="319.333"/>
      <point x="498.667" y="293.333"/>
      <point x="534" y="278" type="curve" smooth="yes"/>
      <point x="552.667" y="270"/>
      <point x="571.333" y="266"/>
      <point x="590" y="266" type="curve" smooth="yes"/>
      <point x="608.667" y="266"/>
      <point x="627.333" y="269.333"/>
      <point x="646" y="276" type="curve" smooth="yes"/>
      <point x="684.667" y="290"/>
      <point x="715.333" y="317.667"/>
      <point x="738" y="359" type="curve" smooth="yes"/>
      <point x="751.333" y="382.333"/>
      <point x="758" y="404"/>
      <point x="758" y="424" type="curve" smooth="yes"/>
      <point x="758" y="444"/>
      <point x="754" y="462.667"/>
      <point x="746" y="480" type="curve" smooth="yes"/>
      <point x="742.667" y="486"/>
      <point x="738.667" y="488.667"/>
      <point x="734" y="488" type="curve" smooth="yes"/>
      <point x="719.86" y="485.172"/>
      <point x="737" y="471.839"/>
      <point x="737" y="448.5" type="curve" smooth="yes"/>
      <point x="737" y="436.167"/>
      <point x="731.333" y="414.667"/>
      <point x="720" y="384" type="curve" smooth="yes"/>
      <point x="696" y="318.667"/>
      <point x="655.667" y="286"/>
      <point x="599" y="286" type="curve" smooth="yes"/>
      <point x="541.667" y="286"/>
      <point x="504" y="342"/>
      <point x="504" y="390" type="curve" smooth="yes"/>
      <point x="504" y="414"/>
      <point x="507.333" y="436.667"/>
      <point x="514" y="458" type="curve" smooth="yes"/>
      <point x="530" y="510"/>
      <point x="557" y="554"/>
      <point x="595" y="590" type="curve" smooth="yes"/>
      <point x="627" y="619.333"/>
      <point x="680.333" y="642.833"/>
      <point x="719" y="655.5" type="curve" smooth="yes"/>
      <point x="738.333" y="661.833"/>
      <point x="762.667" y="667.333"/>
      <point x="792" y="672" type="curve" smooth="yes"/>
      <point x="850.667" y="681.333"/>
      <point x="880" y="683.667"/>
      <point x="944" y="689" type="curve" smooth="yes"/>
      <point x="976" y="691.667"/>
      <point x="1000.667" y="694"/>
      <point x="1018" y="696" type="curve"/>
      <point x="963.333" y="586.667"/>
      <point x="914.667" y="478.667"/>
      <point x="872" y="372" type="curve"/>
      <point x="833" y="372" type="line" smooth="yes"/>
      <point x="809" y="372"/>
      <point x="767" y="344.667"/>
      <point x="767" y="322" type="curve"/>
      <point x="770.365" y="301.81"/>
      <point x="810.43" y="339"/>
      <point x="858" y="339" type="curve"/>
      <point x="766" y="97"/>
      <point x="607" y="-49.333"/>
      <point x="381" y="-100" type="curve" smooth="yes"/>
      <point x="357" y="-105.333"/>
      <point x="331.333" y="-108"/>
      <point x="304" y="-108" type="curve" smooth="yes"/>
      <point x="241.333" y="-108"/>
      <point x="186.667" y="-96.333"/>
      <point x="140" y="-73" type="curve" smooth="yes"/>
      <point x="62.667" y="-33.667"/>
      <point x="24" y="26"/>
      <point x="24" y="106" type="curve" smooth="yes"/>
      <point x="24" y="157.333"/>
      <point x="38" y="202.333"/>
      <point x="66" y="241" type="curve" smooth="yes"/>
      <point x="87.333" y="270.333"/>
      <point x="108" y="289.333"/>
      <point x="128" y="298" type="curve" smooth="yes"/>
      <point x="144.388" y="304.414"/>
      <point x="139.18" y="317.752"/>
      <point x="126" y="312" type="curve"/>
      <point x="90" y="310.667"/>
      <point x="20" y="246.333"/>
      <point x="4" y="185" type="curve" smooth="yes"/>
      <point x="-26.667" y="65"/>
      <point x="10.667" y="-38.5"/>
      <point x="88" y="-96.5" type="curve" smooth="yes"/>
      <point x="165.333" y="-154.5"/>
      <point x="258.333" y="-171"/>
      <point x="329" y="-171" type="curve" smooth="yes"/>
      <point x="413" y="-171"/>
      <point x="493" y="-150"/>
      <point x="569" y="-108" type="curve" smooth="yes"/>
      <point x="625.667" y="-76"/>
      <point x="675.333" y="-36.333"/>
      <point x="718" y="11" type="curve" smooth="yes"/>
      <point x="805.333" y="107"/>
      <point x="869.333" y="215.667"/>
      <point x="910" y="337" type="curve"/>
    </contour>
    <contour>
      <point x="1066" y="723" type="curve"/>
      <point x="1091.333" y="755.667"/>
      <point x="1108" y="772"/>
      <point x="1116" y="772" type="curve" smooth="yes"/>
      <point x="1117.333" y="772"/>
      <point x="1118.333" y="771.667"/>
      <point x="1119" y="771" type="curve"/>
      <point x="1125.667" y="769.667"/>
      <point x="1129.333" y="765.333"/>
      <point x="1130" y="758" type="curve" smooth="yes"/>
      <point x="1130.667" y="741.333"/>
      <point x="1109.333" y="729.667"/>
    </contour>
    <contour>
      <point x="1071" y="349" type="line"/>
      <point x="1114" y="349" type="line"/>
      <point x="1114" y="689" type="line"/>
      <point x="1071" y="689" type="line"/>
    </contour>
    <component base="E" xOffset="919" yOffset="-11"/>
  </outline>
</glyph>
<glyph name="Eth" format="2">
  <advance width="1027"/>
  <unicode hex="00D0"/>
  <note>
Eth
</note>
  <outline>
    <contour>
      <point x="169" y="-39" type="curve" smooth="yes"/>
      <point x="244.333" y="-39"/>
      <point x="313" y="-14"/>
      <point x="375" y="36" type="curve"/>
      <point x="453" y="1.333"/>
      <point x="543.333" y="-22.333"/>
      <point x="646" y="-35" type="curve" smooth="yes"/>
      <point x="662" y="-37"/>
      <point x="678" y="-38"/>
      <point x="694" y="-38" type="curve" smooth="yes"/>
      <point x="736.667" y="-38"/>
      <point x="778.333" y="-30.667"/>
      <point x="819" y="-16" type="curve" smooth="yes"/>
      <point x="874.333" y="4"/>
      <point x="920.667" y="36.667"/>
      <point x="958" y="82" type="curve" smooth="yes"/>
      <point x="1003.333" y="136"/>
      <point x="1026" y="206.333"/>
      <point x="1026" y="293" type="curve" smooth="yes"/>
      <point x="1026" y="363"/>
      <point x="1011" y="427.667"/>
      <point x="981" y="487" type="curve" smooth="yes"/>
      <point x="943.667" y="561"/>
      <point x="889.333" y="621.667"/>
      <point x="818" y="669" type="curve"/>
      <point x="865" y="737" type="line"/>
      <point x="892.95" y="762.692"/>
      <point x="929.026" y="791.198"/>
      <point x="905" y="785" type="curve"/>
      <point x="892.333" y="785"/>
      <point x="871.667" y="775"/>
      <point x="843" y="755" type="curve" smooth="yes"/>
      <point x="823.667" y="741.667"/>
      <point x="809.333" y="731"/>
      <point x="800" y="723" type="curve"/>
      <point x="775" y="694" type="line"/>
      <point x="691" y="738"/>
      <point x="602.667" y="760"/>
      <point x="510" y="760" type="curve" smooth="yes"/>
      <point x="481.333" y="760"/>
      <point x="452.333" y="758"/>
      <point x="423" y="754" type="curve" smooth="yes"/>
      <point x="273.667" y="732"/>
      <point x="169.667" y="681.667"/>
      <point x="111" y="603" type="curve" smooth="yes"/>
      <point x="83.667" y="567"/>
      <point x="70" y="530.667"/>
      <point x="70" y="494" type="curve" smooth="yes"/>
      <point x="70" y="476"/>
      <point x="73.333" y="458"/>
      <point x="80" y="440" type="curve" smooth="yes"/>
      <point x="96" y="392.667"/>
      <point x="129.333" y="360.333"/>
      <point x="180" y="343" type="curve"/>
      <point x="232" y="334" type="line"/>
      <point x="259.333" y="334"/>
      <point x="286.667" y="341.333"/>
      <point x="314" y="356" type="curve" smooth="yes"/>
      <point x="358.667" y="381.333"/>
      <point x="384.333" y="418.333"/>
      <point x="391" y="467" type="curve" smooth="yes"/>
      <point x="393.667" y="484.333"/>
      <point x="372.333" y="488"/>
      <point x="371" y="476" type="curve" smooth="yes"/>
      <point x="369" y="450.667"/>
      <point x="353.333" y="423.333"/>
      <point x="324" y="394" type="curve" smooth="yes"/>
      <point x="284.373" y="356.096"/>
      <point x="235.502" y="354.749"/>
      <point x="190" y="367" type="curve" smooth="yes"/>
      <point x="141.333" y="382.333"/>
      <point x="117" y="415.333"/>
      <point x="117" y="466" type="curve" smooth="yes"/>
      <point x="117" y="503.333"/>
      <point x="133.667" y="542.667"/>
      <point x="167" y="584" type="curve" smooth="yes"/>
      <point x="221" y="652"/>
      <point x="299.667" y="697"/>
      <point x="403" y="719" type="curve" smooth="yes"/>
      <point x="439" y="726.333"/>
      <point x="474.333" y="730"/>
      <point x="509" y="730" type="curve" smooth="yes"/>
      <point x="593" y="730"/>
      <point x="672.333" y="707.667"/>
      <point x="747" y="663" type="curve"/>
      <point x="721" y="633"/>
      <point x="694.667" y="598"/>
      <point x="668" y="558" type="curve" smooth="yes"/>
      <point x="648" y="530"/>
      <point x="576.667" y="402"/>
      <point x="534" y="318" type="curve"/>
      <point x="503.333" y="318.667"/>
      <point x="469" y="319"/>
      <point x="431" y="319" type="curve" smooth="yes"/>
      <point x="406.711" y="319"/>
      <point x="412.507" y="268.358"/>
      <point x="431" y="271" type="curve" smooth="yes"/>
      <point x="513" y="280" type="line"/>
      <point x="460.333" y="184.667"/>
      <point x="411.667" y="115.333"/>
      <point x="367" y="72" type="curve"/>
      <point x="293" y="111.333"/>
      <point x="241.5" y="136.167"/>
      <point x="212.5" y="146.5" type="curve" smooth="yes"/>
      <point x="183.5" y="156.833"/>
      <point x="154.667" y="162"/>
      <point x="126" y="162" type="curve" smooth="yes"/>
      <point x="83.333" y="162"/>
      <point x="50" y="148.333"/>
      <point x="26" y="121" type="curve" smooth="yes"/>
      <point x="10.667" y="103.667"/>
      <point x="3" y="87.5"/>
      <point x="3" y="72.5" type="curve" smooth="yes"/>
      <point x="3" y="57.5"/>
      <point x="5.333" y="44.333"/>
      <point x="10" y="33" type="curve" smooth="yes"/>
      <point x="30" y="-15"/>
      <point x="83" y="-39"/>
    </contour>
    <contour>
      <point x="162" y="-8" type="curve" smooth="yes"/>
      <point x="118.667" y="-8"/>
      <point x="90" y="6.333"/>
      <point x="76" y="35" type="curve" smooth="yes"/>
      <point x="58.043" y="70.914"/>
      <point x="78.181" y="130"/>
      <point x="132.5" y="130" type="curve" smooth="yes"/>
      <point x="152.167" y="130"/>
      <point x="172.333" y="126.333"/>
      <point x="193" y="119" type="curve" smooth="yes"/>
      <point x="213.667" y="111.667"/>
      <point x="263" y="89.333"/>
      <point x="341" y="52" type="curve"/>
      <point x="285.667" y="12"/>
      <point x="226" y="-8"/>
    </contour>
    <contour>
      <point x="679" y="-10" type="curve" smooth="yes"/>
      <point x="667.667" y="-10"/>
      <point x="656.333" y="-9.333"/>
      <point x="645" y="-8" type="curve" smooth="yes"/>
      <point x="553.667" y="0.667"/>
      <point x="471.667" y="21.333"/>
      <point x="399" y="54" type="curve"/>
      <point x="449" y="96.667"/>
      <point x="509.667" y="174"/>
      <point x="581" y="286" type="curve"/>
      <point x="611.667" y="287.333"/>
      <point x="636.333" y="288"/>
      <point x="655" y="288" type="curve"/>
      <point x="665" y="289.333"/>
      <point x="670.667" y="294"/>
      <point x="672" y="302" type="curve"/>
      <point x="669.333" y="310"/>
      <point x="662.333" y="314.333"/>
      <point x="651" y="315" type="curve" smooth="yes"/>
      <point x="601" y="316" type="line"/>
      <point x="616.333" y="340.667"/>
      <point x="646.333" y="390.167"/>
      <point x="691" y="464.5" type="curve" smooth="yes"/>
      <point x="735.667" y="538.833"/>
      <point x="770" y="594.333"/>
      <point x="794" y="631" type="curve"/>
      <point x="852.667" y="585"/>
      <point x="897" y="527.667"/>
      <point x="927" y="459" type="curve" smooth="yes"/>
      <point x="951" y="405"/>
      <point x="963" y="347.333"/>
      <point x="963" y="286" type="curve" smooth="yes"/>
      <point x="963" y="270"/>
      <point x="962" y="253.667"/>
      <point x="960" y="237" type="curve" smooth="yes"/>
      <point x="952" y="165"/>
      <point x="918.333" y="104"/>
      <point x="859" y="54" type="curve" smooth="yes"/>
      <point x="807.667" y="11.333"/>
      <point x="747.667" y="-10"/>
    </contour>
  </outline>
</glyph>
<glyph name="multiply" format="2">
  <advance width="304"/>
  <unicode hex="00D7"/>
  <note>
multiply
</note>
  <outline>
    <contour>
      <point x="243" y="90" type="line"/>
      <point x="251" y="91"/>
      <point x="277" y="120"/>
      <point x="280" y="127" type="curve"/>
      <point x="198" y="285" type="line"/>
      <point x="337" y="435" type="line"/>
      <point x="337" y="443"/>
      <point x="325" y="473"/>
      <point x="317" y="473" type="curve"/>
      <point x="178" y="323" type="line"/>
      <point x="100" y="483" type="line"/>
      <point x="92" y="481"/>
      <point x="66" y="453"/>
      <point x="63" y="446" type="curve"/>
      <point x="145" y="288" type="line"/>
      <point x="6" y="138" type="line"/>
      <point x="6" y="131"/>
      <point x="21" y="101"/>
      <point x="26" y="98" type="curve"/>
      <point x="165" y="248" type="line"/>
    </contour>
  </outline>
</glyph>
<glyph name="eth" format="2">
  <advance width="416"/>
  <unicode hex="00F0"/>
  <note>
eth
</note>
  <outline>
    <contour>
      <point x="158" y="-9" type="curve" smooth="yes"/>
      <point x="184" y="-9"/>
      <point x="210" y="-3"/>
      <point x="236" y="10" type="curve" smooth="yes"/>
      <point x="281" y="33"/>
      <point x="320" y="73"/>
      <point x="354" y="130" type="curve" smooth="yes"/>
      <point x="410" y="226"/>
      <point x="439" y="333"/>
      <point x="439" y="449" type="curve" smooth="yes"/>
      <point x="439" y="535"/>
      <point x="421" y="604"/>
      <point x="386" y="656" type="curve"/>
      <point x="444" y="694"/>
      <point x="488" y="718"/>
      <point x="488" y="726" type="curve" smooth="yes"/>
      <point x="488" y="730"/>
      <point x="487" y="733"/>
      <point x="486" y="735" type="curve" smooth="yes"/>
      <point x="478" y="744"/>
      <point x="469" y="745"/>
      <point x="456" y="738" type="curve" smooth="yes"/>
      <point x="362" y="687" type="line"/>
      <point x="326" y="725"/>
      <point x="282" y="744"/>
      <point x="230" y="744" type="curve" smooth="yes"/>
      <point x="177" y="744"/>
      <point x="151" y="735"/>
      <point x="151" y="718" type="curve" smooth="yes"/>
      <point x="151" y="713"/>
      <point x="155" y="710"/>
      <point x="164" y="710" type="curve" smooth="yes"/>
      <point x="207" y="715" type="line"/>
      <point x="249" y="715"/>
      <point x="285" y="697"/>
      <point x="315" y="661" type="curve"/>
      <point x="224" y="610" type="line"/>
      <point x="190" y="586"/>
      <point x="255" y="542"/>
      <point x="251" y="559" type="curve"/>
      <point x="290" y="587" type="line" smooth="yes"/>
      <point x="311" y="604"/>
      <point x="329" y="616"/>
      <point x="342" y="625" type="curve"/>
      <point x="378" y="563"/>
      <point x="396" y="492"/>
      <point x="396" y="410" type="curve" smooth="yes"/>
      <point x="396" y="374"/>
      <point x="391" y="337"/>
      <point x="382" y="298" type="curve"/>
      <point x="382" y="315" type="line" smooth="yes"/>
      <point x="382" y="357"/>
      <point x="359" y="384"/>
      <point x="318" y="384" type="curve" smooth="yes"/>
      <point x="272" y="384"/>
      <point x="226" y="362"/>
      <point x="181" y="319" type="curve" smooth="yes"/>
      <point x="114" y="257"/>
      <point x="80" y="185"/>
      <point x="80" y="104" type="curve" smooth="yes"/>
      <point x="80" y="48"/>
      <point x="104" y="-9"/>
    </contour>
    <contour>
      <point x="166" y="5" type="curve" smooth="yes"/>
      <point x="144" y="5"/>
      <point x="133" y="21"/>
      <point x="133" y="53" type="curve" smooth="yes"/>
      <point x="133" y="70"/>
      <point x="134" y="87"/>
      <point x="137" y="105" type="curve" smooth="yes"/>
      <point x="147" y="172"/>
      <point x="177" y="239"/>
      <point x="226" y="305" type="curve" smooth="yes"/>
      <point x="260" y="350"/>
      <point x="293" y="372"/>
      <point x="324" y="372" type="curve" smooth="yes"/>
      <point x="351" y="372"/>
      <point x="366" y="350"/>
      <point x="366" y="308" type="curve" smooth="yes"/>
      <point x="366" y="266"/>
      <point x="355" y="226"/>
      <point x="334" y="190" type="curve" smooth="yes"/>
      <point x="268" y="67"/>
      <point x="212" y="5"/>
    </contour>
  </outline>
</glyph>
<glyph name="breve" format="2">
  <advance width="327"/>
  <unicode hex="02D8"/>
  <note>
breve
</note>
  <outline>
    <contour>
      <point x="149" y="496" type="curve" smooth="yes"/>
      <point x="188" y="496"/>
      <point x="225" y="507"/>
      <point x="263" y="530" type="curve" smooth="yes"/>
      <point x="317" y="565"/>
      <point x="344" y="598"/>
      <point x="344" y="628" type="curve" smooth="yes"/>
      <point x="344" y="631"/>
      <point x="342" y="633"/>
      <point x="341" y="635" type="curve" smooth="yes"/>
      <point x="330" y="642"/>
      <point x="321" y="639"/>
      <point x="311" y="626" type="curve" smooth="yes"/>
      <point x="281" y="586"/>
      <point x="270" y="575"/>
      <point x="233" y="559" type="curve" smooth="yes"/>
      <point x="186" y="538"/>
      <point x="112" y="535"/>
      <point x="62" y="584" type="curve" smooth="yes"/>
      <point x="41" y="607"/>
      <point x="42" y="643"/>
      <point x="24" y="643" type="curve" smooth="yes"/>
      <point x="7" y="643"/>
      <point x="-2" y="630"/>
      <point x="-2" y="605" type="curve" smooth="yes"/>
      <point x="-2" y="563"/>
      <point x="15" y="533"/>
      <point x="50" y="517" type="curve" smooth="yes"/>
      <point x="77" y="503"/>
      <point x="110" y="496"/>
    </contour>
  </outline>
</glyph>
<glyph name="rikrik-ethiopic" format="2">
  <advance width="338"/>
  <unicode hex="1392"/>
  <outline>
    <contour>
      <point x="169" y="0" type="curve" smooth="yes"/>
      <point x="202" y="0"/>
      <point x="240" y="25"/>
      <point x="240" y="76" type="curve" smooth="yes"/>
      <point x="240" y="91"/>
      <point x="222" y="118"/>
      <point x="189" y="118" type="curve" smooth="yes"/>
      <point x="162" y="118"/>
      <point x="120" y="97"/>
      <point x="120" y="42" type="curve" smooth="yes"/>
      <point x="120" y="27"/>
      <point x="137" y="0"/>
    </contour>
    <contour>
      <point x="327" y="321" type="curve" smooth="yes"/>
      <point x="354" y="321"/>
      <point x="397" y="341"/>
      <point x="397" y="396" type="curve" smooth="yes"/>
      <point x="397" y="411"/>
      <point x="379" y="438"/>
      <point x="347" y="438" type="curve" smooth="yes"/>
      <point x="314" y="438"/>
      <point x="282" y="411"/>
      <point x="278" y="379" type="curve" smooth="yes"/>
      <point x="272" y="347"/>
      <point x="294" y="321"/>
    </contour>
    <contour>
      <point x="204" y="200" type="curve" smooth="yes"/>
      <point x="204" y="144"/>
      <point x="311" y="173"/>
      <point x="311" y="237" type="curve" smooth="yes"/>
      <point x="311" y="268"/>
      <point x="299" y="284"/>
      <point x="275" y="284" type="curve" smooth="yes"/>
      <point x="243" y="284"/>
      <point x="204" y="234"/>
    </contour>
  </outline>
</glyph>
<glyph name="fraction" format="2">
  <advance width="723"/>
  <unicode hex="2044"/>
  <note>
fraction
</note>
  <outline>
    <contour>
      <point x="107" y="-82" type="curve" smooth="yes"/>
      <point x="137" y="-82"/>
      <point x="253" y="32"/>
      <point x="440" y="260" type="curve" smooth="yes"/>
      <point x="524" y="360"/>
      <point x="630" y="506"/>
      <point x="697" y="590" type="curve" smooth="yes"/>
      <point x="883" y="823" type="line" smooth="yes"/>
      <point x="889" y="831"/>
      <point x="892" y="836"/>
      <point x="892" y="841" type="curve" smooth="yes"/>
      <point x="892" y="850"/>
      <point x="882" y="854"/>
      <point x="873" y="854" type="curve" smooth="yes"/>
      <point x="854" y="854"/>
      <point x="840" y="848"/>
      <point x="830" y="836" type="curve" smooth="yes"/>
      <point x="800" y="796"/>
      <point x="730" y="703"/>
      <point x="641" y="591" type="curve" smooth="yes"/>
      <point x="563" y="492"/>
      <point x="471" y="378"/>
      <point x="384" y="271" type="curve" smooth="yes"/>
      <point x="273" y="134"/>
      <point x="170" y="8"/>
      <point x="109" y="-60" type="curve" smooth="yes"/>
      <point x="103" y="-67"/>
      <point x="100" y="-72"/>
      <point x="100" y="-76" type="curve" smooth="yes"/>
      <point x="100" y="-80"/>
      <point x="103" y="-82"/>
    </contour>
  </outline>
</glyph>
<glyph name="Omega" format="2">
  <advance width="662"/>
  <unicode hex="2126"/>
  <note>
Omega
</note>
  <outline>
    <contour>
      <point x="499" y="29" type="curve"/>
      <point x="532" y="38" type="line"/>
      <point x="602" y="29" type="line"/>
      <point x="637" y="29"/>
      <point x="679" y="55"/>
      <point x="684" y="91" type="curve"/>
      <point x="677" y="112"/>
      <point x="664" y="99"/>
      <point x="663" y="87" type="curve"/>
      <point x="643" y="55"/>
      <point x="624" y="56"/>
      <point x="547" y="69" type="curve"/>
      <point x="603" y="131"/>
      <point x="624" y="150"/>
      <point x="655" y="215" type="curve" smooth="yes"/>
      <point x="671" y="247"/>
      <point x="679" y="281"/>
      <point x="679" y="316" type="curve" smooth="yes"/>
      <point x="679" y="414"/>
      <point x="600" y="469"/>
      <point x="501" y="469" type="curve" smooth="yes"/>
      <point x="414" y="469"/>
      <point x="345" y="440"/>
      <point x="295" y="383" type="curve" smooth="yes"/>
      <point x="268" y="350"/>
      <point x="255" y="311"/>
      <point x="255" y="265" type="curve" smooth="yes"/>
      <point x="255" y="201"/>
      <point x="285" y="134"/>
      <point x="345" y="61" type="curve"/>
      <point x="337" y="62"/>
      <point x="319" y="67"/>
      <point x="292" y="75" type="curve" smooth="yes"/>
      <point x="265" y="82"/>
      <point x="242" y="86"/>
      <point x="222" y="86" type="curve" smooth="yes"/>
      <point x="184" y="86"/>
      <point x="165" y="74"/>
      <point x="165" y="50" type="curve" smooth="yes"/>
      <point x="165" y="29"/>
      <point x="191" y="23"/>
      <point x="197" y="46" type="curve"/>
      <point x="201" y="51" type="line"/>
      <point x="227" y="56"/>
      <point x="281" y="39"/>
      <point x="331" y="39" type="curve" smooth="yes"/>
      <point x="361" y="39"/>
      <point x="376" y="46"/>
      <point x="377" y="61" type="curve" smooth="yes"/>
      <point x="377" y="66"/>
      <point x="363" y="82"/>
      <point x="351" y="103" type="curve" smooth="yes"/>
      <point x="338" y="128"/>
      <point x="307" y="173"/>
      <point x="307" y="251" type="curve" smooth="yes"/>
      <point x="307" y="307"/>
      <point x="326" y="347"/>
      <point x="362" y="375" type="curve" smooth="yes"/>
      <point x="432" y="429"/>
      <point x="523" y="429"/>
      <point x="583" y="386" type="curve" smooth="yes"/>
      <point x="610" y="367"/>
      <point x="623" y="336"/>
      <point x="623" y="295" type="curve" smooth="yes"/>
      <point x="623" y="211"/>
      <point x="555" y="100"/>
      <point x="485" y="61" type="curve"/>
      <point x="478" y="39"/>
      <point x="484" y="29"/>
    </contour>
  </outline>
</glyph>
<glyph name="partialdiff" format="2">
  <advance width="480"/>
  <unicode hex="2202"/>
  <note>
partialdiff
</note>
  <outline>
    <contour>
      <point x="223" y="12" type="curve" smooth="yes"/>
      <point x="249" y="12"/>
      <point x="275" y="18"/>
      <point x="300" y="31" type="curve" smooth="yes"/>
      <point x="346" y="54"/>
      <point x="385" y="94"/>
      <point x="418" y="151" type="curve" smooth="yes"/>
      <point x="475" y="247"/>
      <point x="504" y="354"/>
      <point x="504" y="470" type="curve" smooth="yes"/>
      <point x="504" y="631"/>
      <point x="436" y="765"/>
      <point x="286" y="765" type="curve" smooth="yes"/>
      <point x="239" y="765"/>
      <point x="216" y="756"/>
      <point x="216" y="739" type="curve" smooth="yes"/>
      <point x="216" y="734"/>
      <point x="220" y="731"/>
      <point x="229" y="731" type="curve" smooth="yes"/>
      <point x="272" y="736" type="line"/>
      <point x="338" y="736"/>
      <point x="391" y="689"/>
      <point x="419" y="623" type="curve" smooth="yes"/>
      <point x="447" y="557"/>
      <point x="461" y="493"/>
      <point x="461" y="431" type="curve" smooth="yes"/>
      <point x="461" y="369"/>
      <point x="450" y="312"/>
      <point x="428" y="261" type="curve"/>
      <point x="437" y="286"/>
      <point x="442" y="311"/>
      <point x="442" y="335" type="curve" smooth="yes"/>
      <point x="442" y="382"/>
      <point x="422" y="405"/>
      <point x="383" y="405" type="curve" smooth="yes"/>
      <point x="337" y="405"/>
      <point x="291" y="383"/>
      <point x="245" y="340" type="curve" smooth="yes"/>
      <point x="179" y="278"/>
      <point x="145" y="206"/>
      <point x="145" y="125" type="curve" smooth="yes"/>
      <point x="145" y="69"/>
      <point x="169" y="12"/>
    </contour>
    <contour>
      <point x="228" y="21" type="curve" smooth="yes"/>
      <point x="208" y="21"/>
      <point x="198" y="38"/>
      <point x="198" y="74" type="curve" smooth="yes"/>
      <point x="198" y="159"/>
      <point x="230" y="243"/>
      <point x="293" y="328" type="curve" smooth="yes"/>
      <point x="327" y="374"/>
      <point x="360" y="396"/>
      <point x="391" y="396" type="curve" smooth="yes"/>
      <point x="421" y="396"/>
      <point x="435" y="376"/>
      <point x="435" y="335" type="curve" smooth="yes"/>
      <point x="435" y="295"/>
      <point x="423" y="253"/>
      <point x="399" y="211" type="curve" smooth="yes"/>
      <point x="331" y="84"/>
      <point x="274" y="21"/>
    </contour>
  </outline>
</glyph>
<glyph name="lozenge" format="2">
  <advance width="575"/>
  <unicode hex="25CA"/>
  <note>
lozenge
</note>
  <outline>
    <contour>
      <point x="273" y="-4" type="curve" smooth="yes"/>
      <point x="285" y="-4"/>
      <point x="295" y="3"/>
      <point x="301" y="18" type="curve"/>
      <point x="386" y="146"/>
      <point x="537" y="397"/>
      <point x="539" y="437" type="curve"/>
      <point x="537" y="456" type="line"/>
      <point x="491" y="538" type="line" smooth="yes"/>
      <point x="466" y="583"/>
      <point x="447" y="618"/>
      <point x="434" y="642" type="curve"/>
      <point x="365" y="811" type="line"/>
      <point x="354" y="828"/>
      <point x="345" y="836"/>
      <point x="336" y="836" type="curve" smooth="yes"/>
      <point x="304" y="836"/>
      <point x="67" y="442"/>
      <point x="66" y="394" type="curve" smooth="yes"/>
      <point x="66" y="372"/>
      <point x="93" y="326"/>
      <point x="139" y="243" type="curve" smooth="yes"/>
      <point x="174" y="179"/>
      <point x="202" y="122"/>
      <point x="223" y="70" type="curve"/>
      <point x="227" y="54"/>
      <point x="234" y="37"/>
      <point x="244" y="18" type="curve" smooth="yes"/>
      <point x="251" y="3"/>
      <point x="261" y="-4"/>
    </contour>
    <contour>
      <point x="280" y="101" type="curve"/>
      <point x="234" y="246"/>
      <point x="195" y="361"/>
      <point x="163" y="446" type="curve"/>
      <point x="186" y="488"/>
      <point x="241" y="583"/>
      <point x="326" y="730" type="curve"/>
      <point x="368" y="596"/>
      <point x="408" y="480"/>
      <point x="445" y="382" type="curve"/>
      <point x="369" y="251" type="line" smooth="yes"/>
      <point x="331" y="185"/>
      <point x="301" y="135"/>
    </contour>
  </outline>
</glyph>
<glyph name="_part.right.support" format="2">
  <advance width="1153"/>
  <outline>
    <contour>
      <point x="1060" y="520"/>
      <point x="1060" y="418"/>
      <point x="1060" y="342" type="curve" smooth="yes"/>
      <point x="1060" y="270"/>
      <point x="1064" y="198"/>
      <point x="1078" y="107" type="curve" smooth="yes"/>
      <point x="1093" y="15"/>
      <point x="1136" y="-40"/>
      <point x="1192" y="-40" type="curve" smooth="yes"/>
      <point x="1253" y="-40"/>
      <point x="1307" y="67"/>
      <point x="1329" y="105" type="curve" smooth="yes"/>
      <point x="1357" y="154"/>
      <point x="1373" y="195"/>
      <point x="1361" y="200" type="curve" smooth="yes"/>
      <point x="1350" y="205"/>
      <point x="1331" y="165"/>
      <point x="1308" y="125" type="curve" smooth="yes"/>
      <point x="1281" y="79"/>
      <point x="1236" y="-1"/>
      <point x="1198" y="-2" type="curve" smooth="yes"/>
      <point x="1159" y="-3"/>
      <point x="1137" y="40"/>
      <point x="1129" y="128" type="curve" smooth="yes"/>
      <point x="1124" y="180"/>
      <point x="1118" y="264"/>
      <point x="1117" y="347" type="curve" smooth="yes"/>
      <point x="1116" y="457"/>
      <point x="1116" y="567"/>
      <point x="1123" y="598" type="curve" smooth="yes"/>
      <point x="1135" y="649"/>
      <point x="1165" y="665"/>
      <point x="1163" y="671" type="curve" smooth="yes"/>
      <point x="1161" y="677"/>
      <point x="1140" y="674"/>
      <point x="1111" y="662" type="curve" smooth="yes"/>
      <point x="1092" y="654"/>
      <point x="1069" y="632"/>
      <point x="1066" y="594" type="curve" smooth="yes"/>
    </contour>
  </outline>
</glyph>
<glyph name="_smart.he.aGl" format="2">
  <anchor x="1" y="836" name="_he.aGl"/>
  <outline>
    <contour>
      <point x="-23" y="834" type="curve" smooth="yes"/>
      <point x="-6" y="848"/>
      <point x="117" y="1089"/>
      <point x="110" y="1114" type="curve" smooth="yes"/>
      <point x="104" y="1144"/>
      <point x="92" y="1130"/>
      <point x="56" y="1104" type="curve" smooth="yes"/>
      <point x="34" y="1086"/>
      <point x="29" y="1049"/>
      <point x="-30" y="857" type="curve" smooth="yes"/>
      <point x="-41" y="819"/>
      <point x="-27" y="830"/>
    </contour>
  </outline>
</glyph>
<glyph name="_smart.hu" format="2">
  <anchor x="-23" y="590" name="_hu"/>
  <outline>
    <contour>
      <point x="-115" y="589" type="line"/>
      <point x="51" y="589" type="line"/>
      <point x="51" y="633" type="line"/>
      <point x="-115" y="633" type="line"/>
    </contour>
  </outline>
</glyph>
<glyph name="_smart.hwa" format="2">
  <anchor x="76" y="778" name="_hwa"/>
  <outline>
    <contour>
      <point x="58" y="569" type="line"/>
      <point x="154" y="794" type="line"/>
      <point x="121" y="808" type="line"/>
      <point x="25" y="583" type="line"/>
    </contour>
    <contour>
      <point x="-44" y="567" type="line"/>
      <point x="128" y="567" type="line"/>
      <point x="129" y="622" type="line"/>
      <point x="-43" y="622" type="line"/>
    </contour>
  </outline>
</glyph>
<glyph name="_smart.ka.cap" format="2">
  <anchor x="-4" y="236" name="_ka.cap"/>
  <outline>
    <contour>
      <point x="-304" y="144" type="curve" smooth="yes"/>
      <point x="-285" y="156"/>
      <point x="-158" y="353"/>
      <point x="-163" y="378" type="curve" smooth="yes"/>
      <point x="-166" y="409"/>
      <point x="-179" y="396"/>
      <point x="-216" y="375" type="curve" smooth="yes"/>
      <point x="-241" y="359"/>
      <point x="-250" y="323"/>
      <point x="-308" y="167" type="curve" smooth="yes"/>
      <point x="-322" y="130"/>
      <point x="-307" y="140"/>
    </contour>
    <contour>
      <point x="-307" y="140" type="line"/>
      <point x="10" y="190" type="line"/>
      <point x="20" y="237" type="line"/>
      <point x="-296" y="187" type="line"/>
    </contour>
  </outline>
</glyph>
<glyph name="_smart.neck" format="2">
  <anchor x="-10" y="391" name="_neck"/>
  <outline>
    <contour>
      <point x="40" y="411" type="line"/>
      <point x="151" y="629" type="line"/>
      <point x="119" y="645" type="line"/>
      <point x="8" y="427" type="line"/>
    </contour>
  </outline>
</glyph>
<glyph name="_smart.zha" format="2">
  <anchor x="-10" y="301" name="_zha"/>
  <outline>
    <contour>
      <point x="122" y="277" type="curve" smooth="yes"/>
      <point x="122" y="221"/>
      <point x="229" y="250"/>
      <point x="229" y="314" type="curve" smooth="yes"/>
      <point x="229" y="345"/>
      <point x="217" y="361"/>
      <point x="193" y="361" type="curve" smooth="yes"/>
      <point x="161" y="361"/>
      <point x="122" y="311"/>
    </contour>
    <contour>
      <point x="-100" y="299" type="curve" smooth="yes"/>
      <point x="-100" y="243"/>
      <point x="7" y="272"/>
      <point x="7" y="336" type="curve" smooth="yes"/>
      <point x="7" y="367"/>
      <point x="-5" y="383"/>
      <point x="-29" y="383" type="curve" smooth="yes"/>
      <point x="-61" y="383"/>
      <point x="-100" y="333"/>
    </contour>
  </outline>
</glyph>
<glyph name="ba.base.cap" format="2">
  <advance width="1072"/>
  <anchor x="624" y="390" name="aGl.cap"/>
  <anchor x="864" y="-112" name="haa"/>
  <anchor x="1160" y="881" name="hat"/>
  <anchor x="769" y="972" name="hat.agl"/>
  <anchor x="908" y="995" name="hat.left"/>
  <anchor x="687" y="289" name="he"/>
  <anchor x="655" y="899" name="he.aGl"/>
  <anchor x="1111" y="873" name="he.acute"/>
  <anchor x="866" y="-299" name="hee"/>
  <anchor x="852" y="-194" name="hi"/>
  <anchor x="417" y="-85" name="ho"/>
  <anchor x="1111" y="273" name="hu"/>
  <anchor x="800" y="-134" name="hwa"/>
  <anchor x="1062" y="761" name="ka.cap"/>
  <anchor x="1085" y="712" name="neck"/>
  <outline>
    <contour>
      <point x="972" y="-144" type="curve" smooth="yes"/>
      <point x="1001" y="-151"/>
      <point x="1085" y="-148"/>
      <point x="1085" y="-112" type="curve" smooth="yes"/>
      <point x="1085" y="-79"/>
      <point x="1045" y="-121"/>
      <point x="992" y="-121" type="curve" smooth="yes"/>
      <point x="943" y="-121"/>
      <point x="931" y="-66"/>
      <point x="931" y="-28" type="curve" smooth="yes"/>
      <point x="931" y="71"/>
      <point x="998" y="197"/>
      <point x="1083" y="352" type="curve" smooth="yes"/>
      <point x="1167" y="507"/>
      <point x="1212" y="600"/>
      <point x="1212" y="669" type="curve" smooth="yes"/>
      <point x="1212" y="711"/>
      <point x="1195" y="739"/>
      <point x="1167" y="753" type="curve" smooth="yes"/>
      <point x="1129" y="772"/>
      <point x="1070" y="767"/>
      <point x="1006" y="736" type="curve" smooth="yes"/>
      <point x="936" y="704"/>
      <point x="857" y="635"/>
      <point x="769" y="528" type="curve" smooth="yes"/>
      <point x="722" y="471"/>
      <point x="676" y="411"/>
      <point x="637" y="348" type="curve" smooth="yes"/>
      <point x="606" y="298" type="line"/>
      <point x="605" y="299"/>
      <point x="618" y="329"/>
      <point x="646" y="390" type="curve" smooth="yes"/>
      <point x="698" y="509"/>
      <point x="718" y="571"/>
      <point x="718" y="631" type="curve" smooth="yes"/>
      <point x="718" y="714"/>
      <point x="672" y="778"/>
      <point x="593" y="789" type="curve" smooth="yes"/>
      <point x="449" y="810"/>
      <point x="289" y="737"/>
      <point x="160" y="610" type="curve" smooth="yes"/>
      <point x="69" y="522"/>
      <point x="4" y="390"/>
      <point x="24" y="277" type="curve" smooth="yes"/>
      <point x="42" y="178"/>
      <point x="116" y="122"/>
      <point x="196" y="122" type="curve" smooth="yes"/>
      <point x="312" y="122"/>
      <point x="402" y="184"/>
      <point x="453" y="270" type="curve" smooth="yes"/>
      <point x="474" y="307"/>
      <point x="485" y="339"/>
      <point x="485" y="368" type="curve" smooth="yes"/>
      <point x="485" y="406"/>
      <point x="466" y="448"/>
      <point x="412" y="448" type="curve" smooth="yes"/>
      <point x="378" y="448"/>
      <point x="359" y="443"/>
      <point x="352" y="436" type="curve" smooth="yes"/>
      <point x="341" y="425"/>
      <point x="359" y="427"/>
      <point x="380" y="427" type="curve" smooth="yes"/>
      <point x="425" y="427"/>
      <point x="447" y="406"/>
      <point x="447" y="363" type="curve" smooth="yes"/>
      <point x="447" y="318"/>
      <point x="426" y="273"/>
      <point x="385" y="227" type="curve" smooth="yes"/>
      <point x="334" y="170"/>
      <point x="274" y="141"/>
      <point x="205" y="141" type="curve" smooth="yes"/>
      <point x="119" y="145"/>
      <point x="80" y="212"/>
      <point x="80" y="294" type="curve" smooth="yes"/>
      <point x="80" y="340"/>
      <point x="92" y="390"/>
      <point x="117" y="445" type="curve" smooth="yes"/>
      <point x="162" y="546"/>
      <point x="235" y="627"/>
      <point x="336" y="690" type="curve" smooth="yes"/>
      <point x="405" y="733"/>
      <point x="494" y="772"/>
      <point x="579" y="761" type="curve" smooth="yes"/>
      <point x="669" y="747"/>
      <point x="668" y="637"/>
      <point x="650" y="554" type="curve" smooth="yes"/>
      <point x="607" y="365"/>
      <point x="461" y="53"/>
      <point x="397" y="-42" type="curve"/>
      <point x="396" y="-45"/>
      <point x="396" y="-47"/>
      <point x="397" y="-49" type="curve" smooth="yes"/>
      <point x="398" y="-60"/>
      <point x="407" y="-65"/>
      <point x="424" y="-65" type="curve" smooth="yes"/>
      <point x="452" y="-65"/>
      <point x="471" y="-55"/>
      <point x="480" y="-36" type="curve" smooth="yes"/>
      <point x="521" y="52" type="line" smooth="yes"/>
      <point x="592" y="205"/>
      <point x="656" y="324"/>
      <point x="712" y="407" type="curve" smooth="yes"/>
      <point x="807" y="548"/>
      <point x="906" y="644"/>
      <point x="1011" y="694" type="curve" smooth="yes"/>
      <point x="1043" y="711"/>
      <point x="1099" y="728"/>
      <point x="1124" y="705" type="curve" smooth="yes"/>
      <point x="1136" y="693"/>
      <point x="1137" y="673"/>
      <point x="1133" y="657" type="curve" smooth="yes"/>
      <point x="1106" y="482"/>
      <point x="948" y="260"/>
      <point x="893" y="96" type="curve" smooth="yes"/>
      <point x="881" y="61"/>
      <point x="875" y="27"/>
      <point x="875" y="-7" type="curve" smooth="yes"/>
      <point x="875" y="-80"/>
      <point x="892" y="-129"/>
    </contour>
  </outline>
</glyph>
<glyph name="da.base.cap" format="2">
  <advance width="976"/>
  <anchor x="565" y="98" name="da.cap"/>
  <anchor x="862" y="-19" name="haa"/>
  <anchor x="849" y="843" name="hat"/>
  <anchor x="978" y="544" name="he"/>
  <anchor x="857" y="-255" name="hee"/>
  <anchor x="813" y="-67" name="hi"/>
  <anchor x="281" y="-52" name="ho"/>
  <anchor x="927" y="100" name="hu"/>
  <anchor x="806" y="18" name="hwa"/>
  <anchor x="790" y="684" name="neck"/>
  <outline>
    <contour>
      <point x="187" y="-39" type="curve" smooth="yes"/>
      <point x="278" y="-39"/>
      <point x="361" y="-4"/>
      <point x="436" y="67" type="curve" smooth="yes"/>
      <point x="487" y="117"/>
      <point x="537" y="178"/>
      <point x="586" y="249" type="curve"/>
      <point x="678" y="248"/>
      <point x="741" y="256"/>
      <point x="810" y="273" type="curve" smooth="yes"/>
      <point x="947" y="307"/>
      <point x="1116" y="432"/>
      <point x="1116" y="553" type="curve" smooth="yes"/>
      <point x="1116" y="612"/>
      <point x="1081" y="663"/>
      <point x="1010" y="705" type="curve" smooth="yes"/>
      <point x="975" y="726"/>
      <point x="937" y="742"/>
      <point x="894" y="753" type="curve"/>
      <point x="928" y="787"/>
      <point x="973" y="810"/>
      <point x="952" y="810" type="curve" smooth="yes"/>
      <point x="942" y="810"/>
      <point x="901" y="799"/>
      <point x="854" y="763" type="curve"/>
      <point x="697" y="796"/>
      <point x="483" y="786"/>
      <point x="292" y="710" type="curve" smooth="yes"/>
      <point x="185" y="666"/>
      <point x="88" y="594"/>
      <point x="88" y="478" type="curve" smooth="yes"/>
      <point x="88" y="394"/>
      <point x="151" y="335"/>
      <point x="242" y="335" type="curve" smooth="yes"/>
      <point x="322" y="335"/>
      <point x="401" y="388"/>
      <point x="402" y="475" type="curve" smooth="yes"/>
      <point x="401" y="495"/>
      <point x="391" y="496"/>
      <point x="388" y="476" type="curve" smooth="yes"/>
      <point x="377" y="405"/>
      <point x="300" y="355"/>
      <point x="240" y="355" type="curve" smooth="yes"/>
      <point x="178" y="355"/>
      <point x="138" y="410"/>
      <point x="138" y="461" type="curve" smooth="yes"/>
      <point x="138" y="581"/>
      <point x="273" y="662"/>
      <point x="391" y="703" type="curve" smooth="yes"/>
      <point x="534" y="752"/>
      <point x="694" y="756"/>
      <point x="827" y="738" type="curve"/>
      <point x="818" y="729"/>
      <point x="807" y="715"/>
      <point x="792" y="700" type="curve" smooth="yes"/>
      <point x="774" y="682" type="line" smooth="yes"/>
      <point x="693" y="601"/>
      <point x="619" y="463"/>
      <point x="570" y="366" type="curve" smooth="yes"/>
      <point x="506" y="236"/>
      <point x="448" y="146"/>
      <point x="397" y="96" type="curve" smooth="yes"/>
      <point x="325" y="27"/>
      <point x="252" y="-8"/>
      <point x="177" y="-8" type="curve" smooth="yes"/>
      <point x="119" y="-8"/>
      <point x="82" y="22"/>
      <point x="82" y="68" type="curve" smooth="yes"/>
      <point x="82" y="156"/>
      <point x="209" y="98"/>
      <point x="244" y="133" type="curve" smooth="yes"/>
      <point x="248" y="137"/>
      <point x="243" y="142"/>
      <point x="232" y="146" type="curve" smooth="yes"/>
      <point x="201" y="156"/>
      <point x="172" y="161"/>
      <point x="144" y="161" type="curve" smooth="yes"/>
      <point x="71" y="161"/>
      <point x="20" y="112"/>
      <point x="20" y="72" type="curve" smooth="yes"/>
      <point x="20" y="-7"/>
      <point x="89" y="-39"/>
    </contour>
    <contour>
      <point x="600" y="270" type="line"/>
      <point x="627" y="312"/>
      <point x="671" y="386"/>
      <point x="730" y="492" type="curve" smooth="yes"/>
      <point x="789" y="598"/>
      <point x="838" y="677"/>
      <point x="875" y="729" type="curve"/>
      <point x="993" y="701"/>
      <point x="1052" y="648"/>
      <point x="1052" y="570" type="curve" smooth="yes"/>
      <point x="1052" y="501"/>
      <point x="1009" y="435"/>
      <point x="924" y="370" type="curve" smooth="yes"/>
      <point x="836" y="305"/>
      <point x="711" y="270"/>
      <point x="614" y="270" type="curve" smooth="yes"/>
    </contour>
  </outline>
</glyph>
<glyph name="fa.base" format="2">
  <advance width="355"/>
  <anchor x="247" y="17" name="haa"/>
  <anchor x="234" y="-12" name="haa.acute"/>
  <anchor x="429" y="879" name="hat"/>
  <anchor x="357" y="55" name="hee"/>
  <anchor x="259" y="213" name="hi"/>
  <anchor x="152" y="-57" name="hu"/>
  <anchor x="353" y="42" name="raa.helper"/>
  <anchor x="311" y="46" name="ri.helper"/>
  <outline>
    <contour>
      <point x="237" y="33" type="curve" smooth="yes"/>
      <point x="238" y="39"/>
      <point x="248" y="173"/>
      <point x="232" y="209" type="curve" smooth="yes"/>
      <point x="218" y="241"/>
      <point x="187" y="244"/>
      <point x="172" y="241" type="curve" smooth="yes"/>
      <point x="152" y="237"/>
      <point x="123" y="211"/>
      <point x="117" y="189" type="curve" smooth="yes"/>
      <point x="114" y="179"/>
      <point x="178" y="237"/>
      <point x="203" y="193" type="curve" smooth="yes"/>
      <point x="214" y="173"/>
      <point x="204" y="76"/>
      <point x="195" y="40" type="curve"/>
      <point x="203" y="23"/>
      <point x="237" y="30"/>
    </contour>
    <component base="ra.base"/>
  </outline>
</glyph>
<glyph name="ggo-ethiopic.etcp" format="2">
  <advance width="675"/>
  <anchor x="586" y="-62" name="gwa"/>
  <anchor x="513" y="-66" name="haa.acute"/>
  <anchor x="660" y="840" name="hat"/>
  <anchor x="588" y="512" name="he"/>
  <anchor x="577" y="-244" name="hee"/>
  <anchor x="547" y="-80" name="hi"/>
  <anchor x="387" y="368" name="ho.ring"/>
  <anchor x="699" y="398" name="hu"/>
  <anchor x="579" y="671" name="neck"/>
  <outline>
    <contour>
      <point x="741" y="771" type="curve" smooth="yes"/>
      <point x="784" y="804"/>
      <point x="786" y="857"/>
      <point x="750" y="885" type="curve" smooth="yes"/>
      <point x="731" y="902"/>
      <point x="690" y="912"/>
      <point x="648" y="899" type="curve" smooth="yes"/>
      <point x="591" y="881"/>
      <point x="575" y="839"/>
      <point x="575" y="813" type="curve" smooth="yes"/>
      <point x="575" y="750"/>
      <point x="669" y="717"/>
    </contour>
    <contour>
      <point x="669" y="770" type="curve" smooth="yes"/>
      <point x="610" y="770"/>
      <point x="614" y="877"/>
      <point x="678" y="882" type="curve" smooth="yes"/>
      <point x="704" y="884"/>
      <point x="722" y="860"/>
      <point x="720" y="828" type="curve" smooth="yes"/>
      <point x="716" y="796"/>
      <point x="695" y="770"/>
    </contour>
    <component base="ga.base.cap" xOffset="134"/>
    <component base="_smart.hat" xOffset="637" yOffset="459"/>
  </outline>
</glyph>
<glyph name="la.base" format="2">
  <advance width="507"/>
  <anchor x="368" y="-22" name="haa"/>
  <anchor x="417" y="-187" name="hee"/>
  <anchor x="356" y="-63" name="hi"/>
  <anchor x="489" y="157" name="ho.ring"/>
  <anchor x="526" y="278" name="hu"/>
  <anchor x="346" y="-67" name="hwa"/>
  <anchor x="207" y="-25" name="ring"/>
  <anchor x="462" y="514" name="top"/>
  <outline>
    <contour>
      <point x="19" y="-13" type="curve"/>
      <point x="61" y="11"/>
      <point x="72" y="-21"/>
      <point x="96" y="19" type="curve" smooth="yes"/>
      <point x="101" y="29"/>
      <point x="105" y="40"/>
      <point x="110" y="50" type="curve" smooth="yes"/>
      <point x="129" y="90"/>
      <point x="144" y="128"/>
      <point x="170" y="162" type="curve" smooth="yes"/>
      <point x="220" y="227"/>
      <point x="288" y="279"/>
      <point x="335" y="316" type="curve" smooth="yes"/>
      <point x="498" y="444"/>
      <point x="540" y="448"/>
      <point x="487" y="345" type="curve" smooth="yes"/>
      <point x="439" y="252"/>
      <point x="381" y="124"/>
      <point x="373" y="73" type="curve" smooth="yes"/>
      <point x="361" y="1"/>
      <point x="460" y="-64"/>
      <point x="552" y="53" type="curve" smooth="yes"/>
      <point x="585" y="95"/>
      <point x="625" y="148"/>
      <point x="681" y="259" type="curve" smooth="yes"/>
      <point x="702" y="300"/>
      <point x="678" y="306"/>
      <point x="660" y="272" type="curve" smooth="yes"/>
      <point x="571" y="99"/>
      <point x="511" y="25"/>
      <point x="460" y="25" type="curve" smooth="yes"/>
      <point x="441" y="25"/>
      <point x="416" y="41"/>
      <point x="416" y="67" type="curve" smooth="yes"/>
      <point x="416" y="113"/>
      <point x="454" y="196"/>
      <point x="519" y="316" type="curve" smooth="yes"/>
      <point x="546" y="367"/>
      <point x="579" y="425"/>
      <point x="616" y="490" type="curve"/>
      <point x="611" y="492"/>
      <point x="605" y="493"/>
      <point x="599" y="493" type="curve" smooth="yes"/>
      <point x="549" y="493"/>
      <point x="423" y="418"/>
      <point x="342" y="353" type="curve" smooth="yes"/>
      <point x="303" y="322"/>
      <point x="227" y="272"/>
      <point x="180" y="214" type="curve"/>
      <point x="206.994" y="267.989"/>
      <point x="232" y="314"/>
      <point x="254.413" y="352.425" type="curve" smooth="yes"/>
      <point x="443" y="670"/>
      <point x="272" y="376"/>
      <point x="456" y="696" type="curve" smooth="yes"/>
      <point x="484" y="744"/>
      <point x="509" y="800"/>
      <point x="539" y="829" type="curve"/>
      <point x="508" y="819"/>
      <point x="492" y="829"/>
      <point x="477" y="820" type="curve" smooth="yes"/>
      <point x="456" y="808"/>
      <point x="448" y="785"/>
      <point x="431" y="755" type="curve" smooth="yes"/>
      <point x="378" y="658"/>
      <point x="245" y="420"/>
      <point x="227" y="387" type="curve" smooth="yes"/>
      <point x="199" y="338"/>
      <point x="161" y="270"/>
      <point x="120" y="184" type="curve" smooth="yes"/>
      <point x="96" y="132"/>
      <point x="74" y="90"/>
      <point x="58" y="56" type="curve" smooth="yes"/>
      <point x="44" y="25"/>
      <point x="27" y="2"/>
    </contour>
  </outline>
</glyph>
<glyph name="na.base.cap" format="2">
  <advance width="653"/>
  <anchor x="250" y="-27" name="fa.arm"/>
  <anchor x="375" y="-104" name="haa"/>
  <anchor x="600" y="867" name="hat"/>
  <anchor x="213" y="719" name="he"/>
  <anchor x="715" y="488" name="ho.ring"/>
  <anchor x="365" y="-101" name="hwa"/>
  <outline>
    <contour>
      <point x="381" y="-101" type="curve" smooth="yes"/>
      <point x="468" y="-101"/>
      <point x="548" y="-75"/>
      <point x="623" y="-23" type="curve" smooth="yes"/>
      <point x="698" y="29"/>
      <point x="731" y="80"/>
      <point x="782" y="183" type="curve" smooth="yes"/>
      <point x="791" y="203"/>
      <point x="778" y="210"/>
      <point x="770" y="193" type="curve" smooth="yes"/>
      <point x="719" y="89"/>
      <point x="685" y="38"/>
      <point x="606" y="-9" type="curve" smooth="yes"/>
      <point x="541" y="-48"/>
      <point x="462" y="-67"/>
      <point x="369" y="-67" type="curve" smooth="yes"/>
      <point x="312" y="-67"/>
      <point x="221" y="-47"/>
      <point x="174" y="13" type="curve" smooth="yes"/>
      <point x="151" y="42"/>
      <point x="137" y="75"/>
      <point x="132" y="112" type="curve" smooth="yes"/>
      <point x="127" y="154"/>
      <point x="127" y="191"/>
      <point x="132" y="244" type="curve" smooth="yes"/>
      <point x="137" y="301"/>
      <point x="180" y="435"/>
      <point x="211" y="481" type="curve" smooth="yes"/>
      <point x="283" y="589"/>
      <point x="343" y="650"/>
      <point x="415" y="692" type="curve" smooth="yes"/>
      <point x="472" y="725"/>
      <point x="529" y="741"/>
      <point x="586" y="741" type="curve" smooth="yes"/>
      <point x="643" y="741"/>
      <point x="692" y="732"/>
      <point x="729" y="704" type="curve" smooth="yes"/>
      <point x="795" y="655"/>
      <point x="823" y="615"/>
      <point x="809" y="557" type="curve" smooth="yes"/>
      <point x="799" y="516"/>
      <point x="757" y="492"/>
      <point x="706" y="455" type="curve" smooth="yes"/>
      <point x="689" y="443"/>
      <point x="700" y="437"/>
      <point x="721" y="449" type="curve" smooth="yes"/>
      <point x="796" y="492"/>
      <point x="837" y="542"/>
      <point x="844" y="575" type="curve" smooth="yes"/>
      <point x="854" y="620"/>
      <point x="844" y="639"/>
      <point x="831" y="658" type="curve" smooth="yes"/>
      <point x="788" y="721"/>
      <point x="726" y="765"/>
      <point x="623" y="776" type="curve" smooth="yes"/>
      <point x="604" y="778"/>
      <point x="586" y="779"/>
      <point x="569" y="779" type="curve" smooth="yes"/>
      <point x="508" y="779"/>
      <point x="450" y="767"/>
      <point x="395" y="743" type="curve" smooth="yes"/>
      <point x="323" y="712"/>
      <point x="257" y="664"/>
      <point x="207" y="593" type="curve" smooth="yes"/>
      <point x="183" y="559" type="line" smooth="yes"/>
      <point x="131" y="485"/>
      <point x="83" y="388"/>
      <point x="71" y="309" type="curve" smooth="yes"/>
      <point x="60" y="236"/>
      <point x="60" y="191"/>
      <point x="66" y="148" type="curve" smooth="yes"/>
      <point x="78" y="55"/>
      <point x="136" y="-30"/>
      <point x="232" y="-71" type="curve" smooth="yes"/>
      <point x="279" y="-91"/>
      <point x="329" y="-101"/>
    </contour>
  </outline>
</glyph>
<glyph name="nna.base.cap" format="2">
  <advance width="645"/>
  <anchor x="429" y="-42" name="gwa"/>
  <anchor x="372" y="-20" name="haa.acute"/>
  <anchor x="475" y="837" name="hat"/>
  <anchor x="329" y="910" name="hat.left"/>
  <anchor x="394" y="818" name="he"/>
  <anchor x="528" y="-202" name="hee"/>
  <anchor x="335" y="-100" name="hi"/>
  <anchor x="556" y="442" name="hu"/>
  <anchor x="336" y="813" name="nose.ext"/>
  <outline>
    <contour>
      <point x="428" y="-41" type="curve" smooth="yes"/>
      <point x="455" y="-41"/>
      <point x="483" y="-28"/>
      <point x="510" y="-2" type="curve" smooth="yes"/>
      <point x="551" y="39"/>
      <point x="578" y="77"/>
      <point x="627" y="182" type="curve" smooth="yes"/>
      <point x="638" y="206"/>
      <point x="623" y="212"/>
      <point x="612" y="189" type="curve" smooth="yes"/>
      <point x="567" y="96"/>
      <point x="526" y="36"/>
      <point x="488" y="8" type="curve" smooth="yes"/>
      <point x="469" y="-6"/>
      <point x="451" y="-7"/>
      <point x="435" y="-1" type="curve" smooth="yes"/>
      <point x="409" y="9"/>
      <point x="406" y="39"/>
      <point x="414" y="96" type="curve" smooth="yes"/>
      <point x="424" y="164"/>
      <point x="462" y="263"/>
      <point x="503" y="372" type="curve" smooth="yes"/>
      <point x="554" y="508"/>
      <point x="616" y="639"/>
      <point x="659" y="702" type="curve"/>
      <point x="720" y="707"/>
      <point x="738" y="714"/>
      <point x="754" y="721" type="curve" smooth="yes"/>
      <point x="792" y="741"/>
      <point x="799" y="788"/>
      <point x="755" y="796" type="curve" smooth="yes"/>
      <point x="723" y="800"/>
      <point x="668" y="780"/>
      <point x="629" y="734" type="curve"/>
      <point x="506" y="753" type="line"/>
      <point x="503" y="857" type="line" smooth="yes"/>
      <point x="501" y="909"/>
      <point x="470" y="935"/>
      <point x="468" y="912" type="curve" smooth="yes"/>
      <point x="454" y="743" type="line" smooth="yes"/>
      <point x="453" y="730"/>
      <point x="455" y="718"/>
      <point x="459" y="709" type="curve"/>
      <point x="421" y="703"/>
      <point x="382" y="696"/>
      <point x="345" y="686" type="curve" smooth="yes"/>
      <point x="187" y="643"/>
      <point x="49" y="562"/>
      <point x="22" y="426" type="curve" smooth="yes"/>
      <point x="6" y="348"/>
      <point x="76" y="292"/>
      <point x="124" y="285" type="curve" smooth="yes"/>
      <point x="210" y="271"/>
      <point x="318" y="334"/>
      <point x="331" y="422" type="curve" smooth="yes"/>
      <point x="333" y="441"/>
      <point x="332" y="459"/>
      <point x="325" y="477" type="curve" smooth="yes"/>
      <point x="321" y="488"/>
      <point x="314" y="489"/>
      <point x="306" y="481" type="curve" smooth="yes"/>
      <point x="304" y="479"/>
      <point x="302" y="474"/>
      <point x="303" y="472" type="curve" smooth="yes"/>
      <point x="308" y="459"/>
      <point x="312" y="447"/>
      <point x="308" y="429" type="curve" smooth="yes"/>
      <point x="295" y="373"/>
      <point x="231" y="296"/>
      <point x="145" y="308" type="curve" smooth="yes"/>
      <point x="109" y="313"/>
      <point x="69" y="356"/>
      <point x="79" y="411" type="curve" smooth="yes"/>
      <point x="108" y="572"/>
      <point x="251" y="632"/>
      <point x="363" y="664" type="curve" smooth="yes"/>
      <point x="424" y="682"/>
      <point x="504" y="692"/>
      <point x="602" y="700" type="curve"/>
      <point x="545" y="617"/>
      <point x="478" y="455"/>
      <point x="446" y="372" type="curve" smooth="yes"/>
      <point x="392" y="233"/>
      <point x="364" y="140"/>
      <point x="359" y="105" type="curve" smooth="yes"/>
      <point x="351" y="47"/>
      <point x="351" y="-41"/>
    </contour>
    <contour>
      <point x="670" y="724" type="curve"/>
      <point x="695" y="751"/>
      <point x="726" y="767"/>
      <point x="734" y="766" type="curve" smooth="yes"/>
      <point x="741" y="765"/>
      <point x="746" y="761"/>
      <point x="746" y="753" type="curve" smooth="yes"/>
      <point x="745" y="737"/>
      <point x="714" y="726"/>
    </contour>
  </outline>
</glyph>
<glyph name="nye-ethiopic.etcp" format="2">
  <advance width="675"/>
  <anchor x="586" y="-62" name="gwa"/>
  <anchor x="513" y="-66" name="haa.acute"/>
  <anchor x="660" y="840" name="hat"/>
  <anchor x="588" y="512" name="he"/>
  <anchor x="577" y="-244" name="hee"/>
  <anchor x="547" y="-80" name="hi"/>
  <anchor x="387" y="368" name="ho.ring"/>
  <anchor x="699" y="398" name="hu"/>
  <anchor x="579" y="671" name="neck"/>
  <outline>
    <contour>
      <point x="549" y="357" type="line"/>
      <point x="603" y="387" type="line"/>
      <point x="603" y="528" type="line"/>
      <point x="599" y="547"/>
      <point x="588" y="557"/>
      <point x="570" y="557" type="curve" smooth="yes"/>
      <point x="541" y="557"/>
      <point x="463" y="538"/>
      <point x="463" y="508" type="curve" smooth="yes"/>
      <point x="463" y="479"/>
      <point x="510" y="466"/>
      <point x="549" y="472" type="curve"/>
    </contour>
    <component base="ga.base.cap" xOffset="134"/>
    <component base="_smart.hat" xOffset="637" yOffset="459"/>
  </outline>
</glyph>
<glyph name="ra.base.cap" format="2">
  <advance width="844"/>
  <anchor x="644" y="72" name="fa.arm"/>
  <anchor x="847" y="202" name="haa.acute"/>
  <anchor x="884" y="854" name="hat.left"/>
  <anchor x="807" y="68" name="he.acute"/>
  <anchor x="707" y="-247" name="hee"/>
  <anchor x="638" y="-124" name="hu"/>
  <anchor x="729" y="47" name="raa.helper"/>
  <anchor x="726" y="15" name="ri.helper"/>
  <outline>
    <contour>
      <point x="825" y="-294" type="curve" smooth="yes"/>
      <point x="830" y="-316"/>
      <point x="869" y="-283"/>
      <point x="886" y="-221" type="curve" smooth="yes"/>
      <point x="891" y="-203"/>
      <point x="886" y="-182"/>
      <point x="879" y="-156" type="curve" smooth="yes"/>
      <point x="866" y="-108"/>
      <point x="829" y="-66"/>
      <point x="785" y="-31" type="curve" smooth="yes"/>
      <point x="698" y="38"/>
      <point x="589" y="85"/>
      <point x="457" y="118" type="curve"/>
      <point x="478" y="152" type="line" smooth="yes"/>
      <point x="498" y="184"/>
      <point x="525" y="242"/>
      <point x="566" y="324" type="curve"/>
      <point x="707" y="348"/>
      <point x="852" y="451"/>
      <point x="928" y="578" type="curve" smooth="yes"/>
      <point x="965" y="642"/>
      <point x="989" y="711"/>
      <point x="983" y="783" type="curve" smooth="yes"/>
      <point x="979" y="842"/>
      <point x="899" y="864"/>
      <point x="833" y="837" type="curve" smooth="yes"/>
      <point x="752" y="802"/>
      <point x="683" y="710"/>
      <point x="623" y="559" type="curve" smooth="yes"/>
      <point x="538" y="345" type="line"/>
      <point x="486" y="339"/>
      <point x="403" y="343"/>
      <point x="352" y="392" type="curve" smooth="yes"/>
      <point x="316" y="425"/>
      <point x="311" y="472"/>
      <point x="317" y="513" type="curve" smooth="yes"/>
      <point x="326" y="571"/>
      <point x="365" y="625"/>
      <point x="410" y="654" type="curve" smooth="yes"/>
      <point x="435" y="670"/>
      <point x="461" y="680"/>
      <point x="490" y="683" type="curve"/>
      <point x="514" y="647"/>
      <point x="562" y="714"/>
      <point x="488" y="700" type="curve" smooth="yes"/>
      <point x="375" y="674"/>
      <point x="268" y="610"/>
      <point x="268" y="504" type="curve" smooth="yes"/>
      <point x="268" y="465"/>
      <point x="282" y="429"/>
      <point x="310" y="398" type="curve" smooth="yes"/>
      <point x="353" y="350"/>
      <point x="429" y="320"/>
      <point x="513" y="320" type="curve" smooth="yes"/>
      <point x="524" y="320" type="line"/>
      <point x="484" y="238"/>
      <point x="449" y="174"/>
      <point x="419" y="127" type="curve"/>
      <point x="342" y="142"/>
      <point x="191" y="142"/>
      <point x="95" y="85" type="curve" smooth="yes"/>
      <point x="45" y="56"/>
      <point x="20" y="23"/>
      <point x="20" y="-15" type="curve" smooth="yes"/>
      <point x="20" y="-86"/>
      <point x="91" y="-117"/>
      <point x="153" y="-117" type="curve" smooth="yes"/>
      <point x="252" y="-117"/>
      <point x="359" y="-24"/>
      <point x="428" y="73" type="curve"/>
      <point x="515" y="58"/>
      <point x="682" y="-4"/>
      <point x="767" y="-73" type="curve" smooth="yes"/>
      <point x="829" y="-123"/>
      <point x="851" y="-137"/>
      <point x="851" y="-185" type="curve" smooth="yes"/>
      <point x="851" y="-212"/>
      <point x="821" y="-274"/>
    </contour>
    <contour>
      <point x="132" y="-88" type="curve" smooth="yes"/>
      <point x="87" y="-88"/>
      <point x="41" y="-64"/>
      <point x="41" y="-29" type="curve" smooth="yes"/>
      <point x="41" y="26"/>
      <point x="125" y="61"/>
      <point x="180" y="75" type="curve" smooth="yes"/>
      <point x="255" y="96"/>
      <point x="326" y="90"/>
      <point x="388" y="79" type="curve"/>
      <point x="321" y="-16"/>
      <point x="228" y="-88"/>
    </contour>
    <contour>
      <point x="580" y="351" type="curve"/>
      <point x="635" y="464"/>
      <point x="707" y="613"/>
      <point x="783" y="708" type="curve" smooth="yes"/>
      <point x="832" y="767"/>
      <point x="873" y="797"/>
      <point x="907" y="797" type="curve" smooth="yes"/>
      <point x="930" y="797"/>
      <point x="942" y="784"/>
      <point x="942" y="759" type="curve" smooth="yes"/>
      <point x="942" y="580"/>
      <point x="765" y="392"/>
    </contour>
  </outline>
</glyph>
<glyph name="sa.base" format="2">
  <advance width="716"/>
  <anchor x="452" y="-76" name="haa"/>
  <anchor x="273" y="-53" name="haa.acute"/>
  <anchor x="486" y="-157" name="hee"/>
  <anchor x="390" y="-40" name="hi"/>
  <anchor x="145" y="18" name="ho"/>
  <anchor x="745" y="260" name="hu"/>
  <anchor x="447" y="-55" name="hwa"/>
  <outline>
    <contour>
      <point x="476" y="-14" type="curve" smooth="yes"/>
      <point x="553" y="-14"/>
      <point x="624" y="46"/>
      <point x="689" y="166" type="curve" smooth="yes"/>
      <point x="725" y="234"/>
      <point x="769" y="340"/>
      <point x="809" y="487" type="curve" smooth="yes"/>
      <point x="816" y="513" type="line"/>
      <point x="816" y="529"/>
      <point x="808" y="543"/>
      <point x="792" y="538" type="curve" smooth="yes"/>
      <point x="740" y="523"/>
      <point x="725" y="477"/>
      <point x="714" y="427" type="curve" smooth="yes"/>
      <point x="707" y="395"/>
      <point x="686" y="315"/>
      <point x="704" y="277" type="curve"/>
      <point x="634" y="103"/>
      <point x="563" y="16"/>
      <point x="491" y="16" type="curve" smooth="yes"/>
      <point x="483" y="16" type="line" smooth="yes"/>
      <point x="456" y="16"/>
      <point x="431" y="36"/>
      <point x="431" y="72" type="curve" smooth="yes"/>
      <point x="431" y="100"/>
      <point x="430" y="166"/>
      <point x="470" y="268" type="curve" smooth="yes"/>
      <point x="481" y="295"/>
      <point x="496" y="328"/>
      <point x="517" y="365" type="curve" smooth="yes"/>
      <point x="531" y="391"/>
      <point x="549" y="419"/>
      <point x="567" y="450" type="curve" smooth="yes"/>
      <point x="576" y="466"/>
      <point x="589" y="478"/>
      <point x="608" y="493" type="curve" smooth="yes"/>
      <point x="623" y="505" type="line"/>
      <point x="566" y="505" type="line" smooth="yes"/>
      <point x="537" y="505"/>
      <point x="518" y="495"/>
      <point x="509" y="474" type="curve" smooth="yes"/>
      <point x="506" y="465"/>
      <point x="490" y="431"/>
      <point x="461" y="373" type="curve" smooth="yes"/>
      <point x="438" y="328"/>
      <point x="397" y="231"/>
      <point x="306" y="99" type="curve" smooth="yes"/>
      <point x="278" y="61"/>
      <point x="240" y="21"/>
      <point x="216" y="21" type="curve" smooth="yes"/>
      <point x="172" y="21"/>
      <point x="146" y="38"/>
      <point x="146" y="83" type="curve" smooth="yes"/>
      <point x="146" y="175"/>
      <point x="235" y="412"/>
      <point x="348" y="505" type="curve"/>
      <point x="306" y="505" type="line" smooth="yes"/>
      <point x="277" y="505"/>
      <point x="260" y="495"/>
      <point x="248" y="474" type="curve" smooth="yes"/>
      <point x="201" y="395"/>
      <point x="166" y="329"/>
      <point x="143" y="275" type="curve" smooth="yes"/>
      <point x="98" y="167"/>
      <point x="95" y="105"/>
      <point x="95" y="76" type="curve" smooth="yes"/>
      <point x="95" y="33"/>
      <point x="139" y="-11"/>
      <point x="192" y="-11" type="curve" smooth="yes"/>
      <point x="251" y="-11"/>
      <point x="318" y="57"/>
      <point x="392" y="192" type="curve"/>
      <point x="376" y="136"/>
      <point x="366" y="66"/>
      <point x="402" y="14" type="curve" smooth="yes"/>
      <point x="415" y="-5"/>
      <point x="440" y="-14"/>
    </contour>
  </outline>
</glyph>
<glyph name="ta.base.cap" format="2">
  <advance width="956"/>
  <anchor x="516" y="-104" name="haa.acute"/>
  <anchor x="786" y="787" name="hat"/>
  <anchor x="723" y="778" name="he.acute"/>
  <anchor x="531" y="-218" name="hee"/>
  <anchor x="475" y="-37" name="hi"/>
  <anchor x="697" y="770" name="ho.ring"/>
  <anchor x="691" y="285" name="hu"/>
  <anchor x="481" y="-73" name="hwa"/>
  <outline>
    <contour>
      <point x="556" y="-41" type="curve" smooth="yes"/>
      <point x="583" y="-41"/>
      <point x="611" y="-28"/>
      <point x="638" y="-2" type="curve" smooth="yes"/>
      <point x="679" y="39"/>
      <point x="706" y="77"/>
      <point x="755" y="182" type="curve" smooth="yes"/>
      <point x="766" y="206"/>
      <point x="751" y="212"/>
      <point x="740" y="189" type="curve" smooth="yes"/>
      <point x="695" y="96"/>
      <point x="654" y="36"/>
      <point x="616" y="8" type="curve" smooth="yes"/>
      <point x="597" y="-6"/>
      <point x="579" y="-7"/>
      <point x="563" y="-1" type="curve" smooth="yes"/>
      <point x="537" y="9"/>
      <point x="534" y="39"/>
      <point x="542" y="96" type="curve" smooth="yes"/>
      <point x="552" y="164"/>
      <point x="583" y="266"/>
      <point x="631" y="372" type="curve" smooth="yes"/>
      <point x="740" y="610" type="line"/>
      <point x="803" y="586"/>
      <point x="899" y="569"/>
      <point x="983" y="558" type="curve" smooth="yes"/>
      <point x="1029" y="551"/>
      <point x="1096" y="564"/>
      <point x="1096" y="607" type="curve" smooth="yes"/>
      <point x="1096" y="623"/>
      <point x="1093" y="631"/>
      <point x="1086" y="631" type="curve" smooth="yes"/>
      <point x="1079" y="631"/>
      <point x="1075" y="626"/>
      <point x="1075" y="616" type="curve" smooth="yes"/>
      <point x="1075" y="596"/>
      <point x="1054" y="586"/>
      <point x="1013" y="586" type="curve" smooth="yes"/>
      <point x="975" y="586"/>
      <point x="867" y="610"/>
      <point x="756" y="644" type="curve"/>
      <point x="767" y="660"/>
      <point x="881" y="850"/>
      <point x="886" y="863" type="curve"/>
      <point x="815" y="841"/>
      <point x="786" y="856"/>
      <point x="777" y="836" type="curve" smooth="yes"/>
      <point x="701" y="659" type="line"/>
      <point x="580" y="701"/>
      <point x="468" y="740"/>
      <point x="339" y="740" type="curve" smooth="yes"/>
      <point x="261" y="740"/>
      <point x="139" y="717"/>
      <point x="71" y="612" type="curve" smooth="yes"/>
      <point x="46" y="574"/>
      <point x="34" y="535"/>
      <point x="34" y="495" type="curve" smooth="yes"/>
      <point x="34" y="440"/>
      <point x="57" y="364"/>
      <point x="145" y="333" type="curve" smooth="yes"/>
      <point x="184" y="319"/>
      <point x="232" y="316"/>
      <point x="287" y="348" type="curve" smooth="yes"/>
      <point x="333" y="374"/>
      <point x="359" y="413"/>
      <point x="366" y="465" type="curve"/>
      <point x="366" y="478"/>
      <point x="357" y="482"/>
      <point x="346" y="473" type="curve"/>
      <point x="346" y="471" type="line" smooth="yes"/>
      <point x="346" y="438"/>
      <point x="304" y="374"/>
      <point x="248" y="359" type="curve" smooth="yes"/>
      <point x="214" y="349"/>
      <point x="189" y="349"/>
      <point x="155" y="358" type="curve" smooth="yes"/>
      <point x="53" y="390"/>
      <point x="65" y="517"/>
      <point x="155" y="603" type="curve" smooth="yes"/>
      <point x="214" y="660"/>
      <point x="290" y="688"/>
      <point x="384" y="688" type="curve" smooth="yes"/>
      <point x="473" y="688"/>
      <point x="575" y="663"/>
      <point x="686" y="630" type="curve"/>
      <point x="535" y="275" type="line" smooth="yes"/>
      <point x="513" y="224"/>
      <point x="492" y="158"/>
      <point x="484" y="100" type="curve" smooth="yes"/>
      <point x="473" y="23"/>
      <point x="487" y="-41"/>
    </contour>
  </outline>
</glyph>
<glyph name="wa.base.001" format="2">
  <advance width="752"/>
  <anchor x="360" y="8" name="haa"/>
  <anchor x="355" y="-38" name="haa.acute"/>
  <anchor x="668" y="696" name="hat"/>
  <anchor x="641" y="711" name="he.acute"/>
  <anchor x="376" y="-199" name="hee"/>
  <anchor x="280" y="-112" name="hi"/>
  <anchor x="628" y="582" name="ho.ring"/>
  <anchor x="781" y="275" name="hu"/>
  <anchor x="361" y="-5" name="hwa"/>
  <anchor x="551" y="510" name="neck"/>
  <anchor x="676" y="512" name="top"/>
  <outline>
    <contour>
      <point x="523" y="-13"/>
      <point x="586" y="27"/>
      <point x="639" y="81" type="curve" smooth="yes"/>
      <point x="687" y="131"/>
      <point x="726" y="193"/>
      <point x="748" y="245" type="curve" smooth="yes"/>
      <point x="771" y="294"/>
      <point x="782" y="340"/>
      <point x="782" y="383" type="curve" smooth="yes"/>
      <point x="782" y="475"/>
      <point x="745" y="523"/>
      <point x="671" y="523" type="curve" smooth="yes"/>
      <point x="629" y="523"/>
      <point x="582" y="502"/>
      <point x="537" y="468" type="curve"/>
      <point x="521" y="511"/>
      <point x="487" y="533"/>
      <point x="437" y="533" type="curve" smooth="yes"/>
      <point x="337" y="533"/>
      <point x="210" y="418"/>
      <point x="149" y="276" type="curve" smooth="yes"/>
      <point x="126" y="227"/>
      <point x="115" y="181"/>
      <point x="115" y="139" type="curve" smooth="yes"/>
      <point x="115" y="45"/>
      <point x="152" y="-3"/>
      <point x="226" y="-3" type="curve" smooth="yes"/>
      <point x="258" y="-3"/>
      <point x="324" y="16"/>
      <point x="366" y="40" type="curve"/>
      <point x="384" y="5"/>
      <point x="415" y="-13"/>
      <point x="460" y="-13" type="curve" smooth="yes"/>
    </contour>
    <contour>
      <point x="254" y="29" type="curve" smooth="yes"/>
      <point x="208" y="29"/>
      <point x="171" y="49"/>
      <point x="164" y="100" type="curve" smooth="yes"/>
      <point x="157" y="152"/>
      <point x="175" y="207"/>
      <point x="211" y="280" type="curve" smooth="yes"/>
      <point x="270" y="407"/>
      <point x="383" y="492"/>
      <point x="449" y="492" type="curve" smooth="yes"/>
      <point x="478" y="492"/>
      <point x="499" y="474"/>
      <point x="507" y="443" type="curve"/>
      <point x="457" y="397"/>
      <point x="412" y="335"/>
      <point x="383" y="266" type="curve" smooth="yes"/>
      <point x="360" y="217"/>
      <point x="349" y="171"/>
      <point x="349" y="129" type="curve" smooth="yes"/>
      <point x="349" y="104"/>
      <point x="352" y="82"/>
      <point x="357" y="63" type="curve"/>
      <point x="330" y="47"/>
      <point x="273" y="29"/>
    </contour>
    <contour>
      <point x="683" y="196"/>
      <point x="643" y="130"/>
      <point x="603" y="91" type="curve" smooth="yes"/>
      <point x="558" y="45"/>
      <point x="504" y="18"/>
      <point x="463" y="20" type="curve" smooth="yes"/>
      <point x="430" y="22"/>
      <point x="404" y="43"/>
      <point x="398" y="90" type="curve" smooth="yes"/>
      <point x="391" y="142"/>
      <point x="409" y="197"/>
      <point x="445" y="270" type="curve" smooth="yes"/>
      <point x="504" y="397"/>
      <point x="617" y="482"/>
      <point x="683" y="482" type="curve" smooth="yes"/>
      <point x="721" y="482"/>
      <point x="745" y="451"/>
      <point x="745" y="401" type="curve" smooth="yes"/>
      <point x="745" y="350"/>
      <point x="734" y="300"/>
      <point x="708" y="248" type="curve" smooth="yes"/>
    </contour>
  </outline>
</glyph>
<glyph name="wa.base.cap" format="2">
  <advance width="971"/>
  <anchor x="476" y="-8" name="haa"/>
  <anchor x="496" y="-78" name="haa.acute"/>
  <anchor x="705" y="834" name="hat"/>
  <anchor x="635" y="832" name="he.acute"/>
  <anchor x="501" y="-246" name="hee"/>
  <anchor x="417" y="-151" name="hi"/>
  <anchor x="670" y="828" name="ho.ring"/>
  <anchor x="1019" y="56" name="hu"/>
  <anchor x="482" y="-39" name="hwa"/>
  <anchor x="654" y="655" name="neck"/>
  <outline>
    <contour>
      <point x="249" y="-63" type="curve" smooth="yes"/>
      <point x="331" y="-63"/>
      <point x="379" y="-34"/>
      <point x="452" y="24" type="curve"/>
      <point x="487" y="-27"/>
      <point x="545" y="-63"/>
      <point x="651" y="-63" type="curve" smooth="yes"/>
      <point x="760" y="-63"/>
      <point x="862" y="-11"/>
      <point x="955" y="92" type="curve" smooth="yes"/>
      <point x="1093" y="241"/>
      <point x="1137" y="417"/>
      <point x="1097" y="572" type="curve" smooth="yes"/>
      <point x="1079" y="646"/>
      <point x="1032" y="704"/>
      <point x="957" y="746" type="curve" smooth="yes"/>
      <point x="910" y="773"/>
      <point x="844" y="786"/>
      <point x="759" y="786" type="curve" smooth="yes"/>
      <point x="732" y="786"/>
      <point x="696" y="783"/>
      <point x="653" y="776" type="curve" smooth="yes"/>
      <point x="633" y="773"/>
      <point x="613" y="771"/>
      <point x="596" y="761" type="curve" smooth="yes"/>
      <point x="591" y="758" type="line" smooth="yes"/>
      <point x="586" y="755"/>
      <point x="575" y="749"/>
      <point x="579" y="745" type="curve" smooth="yes"/>
      <point x="584" y="741" type="line"/>
      <point x="610" y="746" type="line" smooth="yes"/>
      <point x="625" y="749"/>
      <point x="640" y="752"/>
      <point x="657" y="754" type="curve" smooth="yes"/>
      <point x="680" y="757"/>
      <point x="705" y="759"/>
      <point x="730" y="759" type="curve" smooth="yes"/>
      <point x="755" y="759"/>
      <point x="781" y="756"/>
      <point x="807" y="750" type="curve" smooth="yes"/>
      <point x="892" y="733"/>
      <point x="957" y="690"/>
      <point x="1003" y="621" type="curve" smooth="yes"/>
      <point x="1040" y="566"/>
      <point x="1058" y="504"/>
      <point x="1058" y="433" type="curve" smooth="yes"/>
      <point x="1058" y="330"/>
      <point x="1024" y="233"/>
      <point x="955" y="142" type="curve" smooth="yes"/>
      <point x="924" y="101"/>
      <point x="887" y="65"/>
      <point x="844" y="32" type="curve" smooth="yes"/>
      <point x="778" y="-18"/>
      <point x="712" y="-43"/>
      <point x="645" y="-43" type="curve" smooth="yes"/>
      <point x="613" y="-43"/>
      <point x="554" y="-32"/>
      <point x="527" y="-10" type="curve" smooth="yes"/>
      <point x="508" y="5"/>
      <point x="494" y="25"/>
      <point x="483" y="49" type="curve"/>
      <point x="593" y="344" type="line" smooth="yes"/>
      <point x="613" y="397"/>
      <point x="646" y="485"/>
      <point x="652" y="561" type="curve" smooth="yes"/>
      <point x="669" y="744"/>
      <point x="432" y="804"/>
      <point x="251" y="776" type="curve" smooth="yes"/>
      <point x="165" y="761"/>
      <point x="100" y="721"/>
      <point x="57" y="656" type="curve" smooth="yes"/>
      <point x="33" y="620"/>
      <point x="21" y="585"/>
      <point x="21" y="550" type="curve" smooth="yes"/>
      <point x="21" y="515"/>
      <point x="29" y="480"/>
      <point x="46" y="447" type="curve" smooth="yes"/>
      <point x="59" y="422"/>
      <point x="75" y="430"/>
      <point x="70" y="453" type="curve" smooth="yes"/>
      <point x="63" y="482"/>
      <point x="59" y="510"/>
      <point x="59" y="536" type="curve" smooth="yes"/>
      <point x="59" y="580"/>
      <point x="70" y="620"/>
      <point x="91" y="655" type="curve" smooth="yes"/>
      <point x="124" y="711"/>
      <point x="178" y="744"/>
      <point x="255" y="754" type="curve" smooth="yes"/>
      <point x="278" y="757"/>
      <point x="303" y="759"/>
      <point x="328" y="759" type="curve" smooth="yes"/>
      <point x="391" y="759"/>
      <point x="528" y="731"/>
      <point x="575" y="670" type="curve" smooth="yes"/>
      <point x="634" y="594"/>
      <point x="589" y="491"/>
      <point x="570" y="440" type="curve" smooth="yes"/>
      <point x="431" y="64" type="line" smooth="yes"/>
      <point x="428" y="56"/>
      <point x="413" y="35"/>
      <point x="369" y="0" type="curve" smooth="yes"/>
      <point x="329" y="-32"/>
      <point x="276" y="-43"/>
      <point x="243" y="-43" type="curve" smooth="yes"/>
      <point x="211" y="-43"/>
      <point x="182" y="-32"/>
      <point x="155" y="-10" type="curve" smooth="yes"/>
      <point x="112" y="26"/>
      <point x="91" y="83"/>
      <point x="91" y="160" type="curve" smooth="yes"/>
      <point x="91" y="190"/>
      <point x="97" y="225"/>
      <point x="109" y="266" type="curve" smooth="yes"/>
      <point x="149" y="406"/>
      <point x="230" y="522"/>
      <point x="329" y="590" type="curve" smooth="yes"/>
      <point x="366" y="615"/>
      <point x="400" y="628"/>
      <point x="430" y="628" type="curve" smooth="yes"/>
      <point x="471" y="628"/>
      <point x="494" y="623"/>
      <point x="468" y="638" type="curve" smooth="yes"/>
      <point x="446" y="651"/>
      <point x="423" y="657"/>
      <point x="400" y="657" type="curve" smooth="yes"/>
      <point x="397" y="657"/>
      <point x="393" y="657"/>
      <point x="389" y="656" type="curve" smooth="yes"/>
      <point x="327" y="651"/>
      <point x="271" y="626"/>
      <point x="222" y="580" type="curve" smooth="yes"/>
      <point x="134" y="499"/>
      <point x="76" y="405"/>
      <point x="48" y="294" type="curve" smooth="yes"/>
      <point x="39" y="260"/>
      <point x="35" y="223"/>
      <point x="35" y="184" type="curve" smooth="yes"/>
      <point x="35" y="145"/>
      <point x="43" y="105"/>
      <point x="59" y="64" type="curve" smooth="yes"/>
      <point x="88" y="-9"/>
      <point x="156" y="-63"/>
    </contour>
  </outline>
</glyph>
